ISO-10303-21;
HEADER;
/* Generated by software containing ST-Developer
 * from STEP Tools, Inc. (www.steptools.com) 
 */

FILE_DESCRIPTION(
/* description */ (''),
/* implementation_level */ '2;1');

FILE_NAME(
/* name */ 'Deepthought.step',
/* time_stamp */ '2026-07-19T18:13:42-04:00',
/* author */ (''),
/* organization */ (''),
/* preprocessor_version */ 'ST-DEVELOPER v20.1',
/* originating_system */ 'Autodesk Translation Framework v15.8.0.0',
/* authorisation */ '');

FILE_SCHEMA (('AUTOMOTIVE_DESIGN { 1 0 10303 214 3 1 1 }'));
ENDSEC;

DATA;
#10=MECHANICAL_DESIGN_GEOMETRIC_PRESENTATION_REPRESENTATION('',(#22,#23),
#1468);
#11=SHAPE_REPRESENTATION_RELATIONSHIP('SRR','None',#1475,#12);
#12=ADVANCED_BREP_SHAPE_REPRESENTATION('',(#24,#25),#1467);
#13=FACE_BOUND('',#127,.T.);
#14=FACE_BOUND('',#140,.T.);
#15=FACE_BOUND('',#141,.T.);
#16=FACE_BOUND('',#153,.T.);
#17=FACE_BOUND('',#161,.T.);
#18=FACE_BOUND('',#164,.T.);
#19=FACE_BOUND('',#165,.T.);
#20=FACE_BOUND('',#166,.T.);
#21=FACE_BOUND('',#168,.T.);
#22=STYLED_ITEM('',(#1484),#24);
#23=STYLED_ITEM('',(#1484),#25);
#24=MANIFOLD_SOLID_BREP('Bottom',#882);
#25=MANIFOLD_SOLID_BREP('Top',#883);
#26=CIRCLE('',#899,3.99999999999999);
#27=CIRCLE('',#900,3.99999999999999);
#28=CIRCLE('',#903,4.);
#29=CIRCLE('',#904,4.);
#30=CIRCLE('',#907,4.);
#31=CIRCLE('',#908,4.);
#32=CIRCLE('',#911,3.99999999999999);
#33=CIRCLE('',#912,3.99999999999999);
#34=CIRCLE('',#916,2.5);
#35=CIRCLE('',#917,2.5);
#36=CIRCLE('',#920,1.25);
#37=CIRCLE('',#922,1.25);
#38=CIRCLE('',#934,3.99999999999999);
#39=CIRCLE('',#935,3.99999999999999);
#40=CIRCLE('',#936,4.);
#41=CIRCLE('',#937,4.);
#42=CIRCLE('',#940,3.99999999999999);
#43=CIRCLE('',#943,3.99999999999999);
#44=CIRCLE('',#950,4.);
#45=CIRCLE('',#953,4.);
#46=CIRCLE('',#955,4.);
#47=CIRCLE('',#956,4.);
#48=CIRCLE('',#959,4.00000000000001);
#49=CIRCLE('',#960,4.00000000000001);
#50=CIRCLE('',#963,4.);
#51=CIRCLE('',#964,4.);
#52=CIRCLE('',#967,4.);
#53=CIRCLE('',#968,4.);
#54=CYLINDRICAL_SURFACE('',#898,3.99999999999999);
#55=CYLINDRICAL_SURFACE('',#902,4.);
#56=CYLINDRICAL_SURFACE('',#906,4.);
#57=CYLINDRICAL_SURFACE('',#910,3.99999999999999);
#58=CYLINDRICAL_SURFACE('',#915,2.5);
#59=CYLINDRICAL_SURFACE('',#921,1.25);
#60=CYLINDRICAL_SURFACE('',#939,3.99999999999999);
#61=CYLINDRICAL_SURFACE('',#942,3.99999999999999);
#62=CYLINDRICAL_SURFACE('',#949,4.);
#63=CYLINDRICAL_SURFACE('',#952,4.);
#64=CYLINDRICAL_SURFACE('',#954,4.);
#65=CYLINDRICAL_SURFACE('',#958,4.00000000000001);
#66=CYLINDRICAL_SURFACE('',#962,4.);
#67=CYLINDRICAL_SURFACE('',#966,4.);
#68=FACE_OUTER_BOUND('',#114,.T.);
#69=FACE_OUTER_BOUND('',#115,.T.);
#70=FACE_OUTER_BOUND('',#116,.T.);
#71=FACE_OUTER_BOUND('',#117,.T.);
#72=FACE_OUTER_BOUND('',#118,.T.);
#73=FACE_OUTER_BOUND('',#119,.T.);
#74=FACE_OUTER_BOUND('',#120,.T.);
#75=FACE_OUTER_BOUND('',#121,.T.);
#76=FACE_OUTER_BOUND('',#122,.T.);
#77=FACE_OUTER_BOUND('',#123,.T.);
#78=FACE_OUTER_BOUND('',#124,.T.);
#79=FACE_OUTER_BOUND('',#125,.T.);
#80=FACE_OUTER_BOUND('',#126,.T.);
#81=FACE_OUTER_BOUND('',#128,.T.);
#82=FACE_OUTER_BOUND('',#129,.T.);
#83=FACE_OUTER_BOUND('',#130,.T.);
#84=FACE_OUTER_BOUND('',#131,.T.);
#85=FACE_OUTER_BOUND('',#132,.T.);
#86=FACE_OUTER_BOUND('',#133,.T.);
#87=FACE_OUTER_BOUND('',#134,.T.);
#88=FACE_OUTER_BOUND('',#135,.T.);
#89=FACE_OUTER_BOUND('',#136,.T.);
#90=FACE_OUTER_BOUND('',#137,.T.);
#91=FACE_OUTER_BOUND('',#138,.T.);
#92=FACE_OUTER_BOUND('',#139,.T.);
#93=FACE_OUTER_BOUND('',#142,.T.);
#94=FACE_OUTER_BOUND('',#143,.T.);
#95=FACE_OUTER_BOUND('',#144,.T.);
#96=FACE_OUTER_BOUND('',#145,.T.);
#97=FACE_OUTER_BOUND('',#146,.T.);
#98=FACE_OUTER_BOUND('',#147,.T.);
#99=FACE_OUTER_BOUND('',#148,.T.);
#100=FACE_OUTER_BOUND('',#149,.T.);
#101=FACE_OUTER_BOUND('',#150,.T.);
#102=FACE_OUTER_BOUND('',#151,.T.);
#103=FACE_OUTER_BOUND('',#152,.T.);
#104=FACE_OUTER_BOUND('',#154,.T.);
#105=FACE_OUTER_BOUND('',#155,.T.);
#106=FACE_OUTER_BOUND('',#156,.T.);
#107=FACE_OUTER_BOUND('',#157,.T.);
#108=FACE_OUTER_BOUND('',#158,.T.);
#109=FACE_OUTER_BOUND('',#159,.T.);
#110=FACE_OUTER_BOUND('',#160,.T.);
#111=FACE_OUTER_BOUND('',#162,.T.);
#112=FACE_OUTER_BOUND('',#163,.T.);
#113=FACE_OUTER_BOUND('',#167,.T.);
#114=EDGE_LOOP('',(#560,#561,#562,#563));
#115=EDGE_LOOP('',(#564,#565,#566,#567));
#116=EDGE_LOOP('',(#568,#569,#570,#571));
#117=EDGE_LOOP('',(#572,#573,#574,#575));
#118=EDGE_LOOP('',(#576,#577,#578,#579));
#119=EDGE_LOOP('',(#580,#581,#582,#583));
#120=EDGE_LOOP('',(#584,#585,#586,#587));
#121=EDGE_LOOP('',(#588,#589,#590,#591));
#122=EDGE_LOOP('',(#592,#593,#594,#595,#596,#597,#598,#599));
#123=EDGE_LOOP('',(#600,#601,#602,#603,#604,#605,#606,#607));
#124=EDGE_LOOP('',(#608,#609,#610,#611));
#125=EDGE_LOOP('',(#612,#613,#614,#615));
#126=EDGE_LOOP('',(#616,#617,#618,#619));
#127=EDGE_LOOP('',(#620));
#128=EDGE_LOOP('',(#621,#622,#623,#624));
#129=EDGE_LOOP('',(#625,#626,#627,#628));
#130=EDGE_LOOP('',(#629,#630,#631,#632,#633,#634));
#131=EDGE_LOOP('',(#635,#636,#637,#638));
#132=EDGE_LOOP('',(#639,#640,#641,#642));
#133=EDGE_LOOP('',(#643,#644,#645,#646));
#134=EDGE_LOOP('',(#647,#648,#649,#650));
#135=EDGE_LOOP('',(#651,#652,#653,#654));
#136=EDGE_LOOP('',(#655,#656,#657,#658));
#137=EDGE_LOOP('',(#659,#660,#661,#662));
#138=EDGE_LOOP('',(#663,#664,#665,#666));
#139=EDGE_LOOP('',(#667,#668,#669,#670,#671,#672,#673,#674));
#140=EDGE_LOOP('',(#675,#676,#677,#678));
#141=EDGE_LOOP('',(#679,#680,#681,#682));
#142=EDGE_LOOP('',(#683,#684,#685,#686));
#143=EDGE_LOOP('',(#687,#688,#689,#690));
#144=EDGE_LOOP('',(#691,#692,#693,#694));
#145=EDGE_LOOP('',(#695,#696,#697,#698));
#146=EDGE_LOOP('',(#699,#700,#701,#702));
#147=EDGE_LOOP('',(#703,#704,#705,#706));
#148=EDGE_LOOP('',(#707,#708,#709,#710));
#149=EDGE_LOOP('',(#711,#712,#713,#714));
#150=EDGE_LOOP('',(#715,#716,#717,#718));
#151=EDGE_LOOP('',(#719,#720,#721,#722));
#152=EDGE_LOOP('',(#723,#724,#725,#726));
#153=EDGE_LOOP('',(#727,#728,#729,#730));
#154=EDGE_LOOP('',(#731,#732,#733,#734));
#155=EDGE_LOOP('',(#735,#736,#737,#738,#739));
#156=EDGE_LOOP('',(#740,#741,#742,#743));
#157=EDGE_LOOP('',(#744,#745,#746,#747));
#158=EDGE_LOOP('',(#748,#749,#750,#751));
#159=EDGE_LOOP('',(#752,#753,#754,#755));
#160=EDGE_LOOP('',(#756,#757,#758,#759));
#161=EDGE_LOOP('',(#760,#761,#762,#763));
#162=EDGE_LOOP('',(#764,#765,#766,#767));
#163=EDGE_LOOP('',(#768,#769,#770,#771,#772,#773,#774,#775,#776,#777,#778));
#164=EDGE_LOOP('',(#779));
#165=EDGE_LOOP('',(#780,#781,#782,#783));
#166=EDGE_LOOP('',(#784,#785,#786,#787));
#167=EDGE_LOOP('',(#788,#789,#790,#791,#792,#793,#794,#795));
#168=EDGE_LOOP('',(#796,#797,#798,#799,#800,#801,#802,#803));
#169=LINE('',#1219,#263);
#170=LINE('',#1221,#264);
#171=LINE('',#1223,#265);
#172=LINE('',#1224,#266);
#173=LINE('',#1230,#267);
#174=LINE('',#1233,#268);
#175=LINE('',#1235,#269);
#176=LINE('',#1236,#270);
#177=LINE('',#1242,#271);
#178=LINE('',#1245,#272);
#179=LINE('',#1247,#273);
#180=LINE('',#1248,#274);
#181=LINE('',#1254,#275);
#182=LINE('',#1257,#276);
#183=LINE('',#1259,#277);
#184=LINE('',#1260,#278);
#185=LINE('',#1271,#279);
#186=LINE('',#1274,#280);
#187=LINE('',#1277,#281);
#188=LINE('',#1279,#282);
#189=LINE('',#1280,#283);
#190=LINE('',#1283,#284);
#191=LINE('',#1284,#285);
#192=LINE('',#1290,#286);
#193=LINE('',#1293,#287);
#194=LINE('',#1294,#288);
#195=LINE('',#1297,#289);
#196=LINE('',#1299,#290);
#197=LINE('',#1301,#291);
#198=LINE('',#1302,#292);
#199=LINE('',#1306,#293);
#200=LINE('',#1308,#294);
#201=LINE('',#1310,#295);
#202=LINE('',#1311,#296);
#203=LINE('',#1314,#297);
#204=LINE('',#1316,#298);
#205=LINE('',#1317,#299);
#206=LINE('',#1320,#300);
#207=LINE('',#1322,#301);
#208=LINE('',#1323,#302);
#209=LINE('',#1325,#303);
#210=LINE('',#1326,#304);
#211=LINE('',#1330,#305);
#212=LINE('',#1332,#306);
#213=LINE('',#1334,#307);
#214=LINE('',#1335,#308);
#215=LINE('',#1338,#309);
#216=LINE('',#1340,#310);
#217=LINE('',#1341,#311);
#218=LINE('',#1344,#312);
#219=LINE('',#1346,#313);
#220=LINE('',#1347,#314);
#221=LINE('',#1349,#315);
#222=LINE('',#1350,#316);
#223=LINE('',#1356,#317);
#224=LINE('',#1360,#318);
#225=LINE('',#1364,#319);
#226=LINE('',#1367,#320);
#227=LINE('',#1370,#321);
#228=LINE('',#1372,#322);
#229=LINE('',#1373,#323);
#230=LINE('',#1376,#324);
#231=LINE('',#1380,#325);
#232=LINE('',#1381,#326);
#233=LINE('',#1384,#327);
#234=LINE('',#1389,#328);
#235=LINE('',#1391,#329);
#236=LINE('',#1393,#330);
#237=LINE('',#1394,#331);
#238=LINE('',#1397,#332);
#239=LINE('',#1399,#333);
#240=LINE('',#1400,#334);
#241=LINE('',#1403,#335);
#242=LINE('',#1405,#336);
#243=LINE('',#1406,#337);
#244=LINE('',#1408,#338);
#245=LINE('',#1409,#339);
#246=LINE('',#1412,#340);
#247=LINE('',#1413,#341);
#248=LINE('',#1416,#342);
#249=LINE('',#1420,#343);
#250=LINE('',#1421,#344);
#251=LINE('',#1429,#345);
#252=LINE('',#1432,#346);
#253=LINE('',#1434,#347);
#254=LINE('',#1435,#348);
#255=LINE('',#1441,#349);
#256=LINE('',#1444,#350);
#257=LINE('',#1446,#351);
#258=LINE('',#1447,#352);
#259=LINE('',#1453,#353);
#260=LINE('',#1456,#354);
#261=LINE('',#1458,#355);
#262=LINE('',#1459,#356);
#263=VECTOR('',#975,10.);
#264=VECTOR('',#976,10.);
#265=VECTOR('',#977,10.);
#266=VECTOR('',#978,10.);
#267=VECTOR('',#985,10.);
#268=VECTOR('',#988,10.);
#269=VECTOR('',#989,10.);
#270=VECTOR('',#990,10.);
#271=VECTOR('',#997,10.);
#272=VECTOR('',#1000,10.);
#273=VECTOR('',#1001,10.);
#274=VECTOR('',#1002,10.);
#275=VECTOR('',#1009,10.);
#276=VECTOR('',#1012,10.);
#277=VECTOR('',#1013,10.);
#278=VECTOR('',#1014,10.);
#279=VECTOR('',#1029,10.);
#280=VECTOR('',#1032,10.);
#281=VECTOR('',#1035,10.);
#282=VECTOR('',#1036,10.);
#283=VECTOR('',#1037,10.);
#284=VECTOR('',#1040,10.);
#285=VECTOR('',#1041,10.);
#286=VECTOR('',#1048,1.25);
#287=VECTOR('',#1051,10.);
#288=VECTOR('',#1052,10.);
#289=VECTOR('',#1055,10.);
#290=VECTOR('',#1056,10.);
#291=VECTOR('',#1057,10.);
#292=VECTOR('',#1058,10.);
#293=VECTOR('',#1061,10.);
#294=VECTOR('',#1062,10.);
#295=VECTOR('',#1063,10.);
#296=VECTOR('',#1064,10.);
#297=VECTOR('',#1067,10.);
#298=VECTOR('',#1068,10.);
#299=VECTOR('',#1069,10.);
#300=VECTOR('',#1072,10.);
#301=VECTOR('',#1073,10.);
#302=VECTOR('',#1074,10.);
#303=VECTOR('',#1077,10.);
#304=VECTOR('',#1078,10.);
#305=VECTOR('',#1081,10.);
#306=VECTOR('',#1082,10.);
#307=VECTOR('',#1083,10.);
#308=VECTOR('',#1084,10.);
#309=VECTOR('',#1087,10.);
#310=VECTOR('',#1088,10.);
#311=VECTOR('',#1089,10.);
#312=VECTOR('',#1092,10.);
#313=VECTOR('',#1093,10.);
#314=VECTOR('',#1094,10.);
#315=VECTOR('',#1097,10.);
#316=VECTOR('',#1098,10.);
#317=VECTOR('',#1103,10.);
#318=VECTOR('',#1106,10.);
#319=VECTOR('',#1109,10.);
#320=VECTOR('',#1112,10.);
#321=VECTOR('',#1115,10.);
#322=VECTOR('',#1116,10.);
#323=VECTOR('',#1117,10.);
#324=VECTOR('',#1120,10.);
#325=VECTOR('',#1125,10.);
#326=VECTOR('',#1126,10.);
#327=VECTOR('',#1129,10.);
#328=VECTOR('',#1134,10.);
#329=VECTOR('',#1135,10.);
#330=VECTOR('',#1136,10.);
#331=VECTOR('',#1137,10.);
#332=VECTOR('',#1140,10.);
#333=VECTOR('',#1141,10.);
#334=VECTOR('',#1142,10.);
#335=VECTOR('',#1145,10.);
#336=VECTOR('',#1146,10.);
#337=VECTOR('',#1147,10.);
#338=VECTOR('',#1150,10.);
#339=VECTOR('',#1151,10.);
#340=VECTOR('',#1154,10.);
#341=VECTOR('',#1155,10.);
#342=VECTOR('',#1158,10.);
#343=VECTOR('',#1163,10.);
#344=VECTOR('',#1164,10.);
#345=VECTOR('',#1175,10.);
#346=VECTOR('',#1178,10.);
#347=VECTOR('',#1179,10.);
#348=VECTOR('',#1180,10.);
#349=VECTOR('',#1187,10.);
#350=VECTOR('',#1190,10.);
#351=VECTOR('',#1191,10.);
#352=VECTOR('',#1192,10.);
#353=VECTOR('',#1199,10.);
#354=VECTOR('',#1202,10.);
#355=VECTOR('',#1203,10.);
#356=VECTOR('',#1204,10.);
#357=VERTEX_POINT('',#1217);
#358=VERTEX_POINT('',#1218);
#359=VERTEX_POINT('',#1220);
#360=VERTEX_POINT('',#1222);
#361=VERTEX_POINT('',#1226);
#362=VERTEX_POINT('',#1228);
#363=VERTEX_POINT('',#1232);
#364=VERTEX_POINT('',#1234);
#365=VERTEX_POINT('',#1238);
#366=VERTEX_POINT('',#1240);
#367=VERTEX_POINT('',#1244);
#368=VERTEX_POINT('',#1246);
#369=VERTEX_POINT('',#1250);
#370=VERTEX_POINT('',#1252);
#371=VERTEX_POINT('',#1256);
#372=VERTEX_POINT('',#1258);
#373=VERTEX_POINT('',#1267);
#374=VERTEX_POINT('',#1268);
#375=VERTEX_POINT('',#1270);
#376=VERTEX_POINT('',#1272);
#377=VERTEX_POINT('',#1276);
#378=VERTEX_POINT('',#1278);
#379=VERTEX_POINT('',#1282);
#380=VERTEX_POINT('',#1285);
#381=VERTEX_POINT('',#1288);
#382=VERTEX_POINT('',#1292);
#383=VERTEX_POINT('',#1296);
#384=VERTEX_POINT('',#1298);
#385=VERTEX_POINT('',#1300);
#386=VERTEX_POINT('',#1304);
#387=VERTEX_POINT('',#1305);
#388=VERTEX_POINT('',#1307);
#389=VERTEX_POINT('',#1309);
#390=VERTEX_POINT('',#1313);
#391=VERTEX_POINT('',#1315);
#392=VERTEX_POINT('',#1319);
#393=VERTEX_POINT('',#1321);
#394=VERTEX_POINT('',#1328);
#395=VERTEX_POINT('',#1329);
#396=VERTEX_POINT('',#1331);
#397=VERTEX_POINT('',#1333);
#398=VERTEX_POINT('',#1337);
#399=VERTEX_POINT('',#1339);
#400=VERTEX_POINT('',#1343);
#401=VERTEX_POINT('',#1345);
#402=VERTEX_POINT('',#1352);
#403=VERTEX_POINT('',#1353);
#404=VERTEX_POINT('',#1355);
#405=VERTEX_POINT('',#1357);
#406=VERTEX_POINT('',#1359);
#407=VERTEX_POINT('',#1361);
#408=VERTEX_POINT('',#1363);
#409=VERTEX_POINT('',#1365);
#410=VERTEX_POINT('',#1369);
#411=VERTEX_POINT('',#1371);
#412=VERTEX_POINT('',#1375);
#413=VERTEX_POINT('',#1379);
#414=VERTEX_POINT('',#1383);
#415=VERTEX_POINT('',#1387);
#416=VERTEX_POINT('',#1388);
#417=VERTEX_POINT('',#1390);
#418=VERTEX_POINT('',#1392);
#419=VERTEX_POINT('',#1396);
#420=VERTEX_POINT('',#1398);
#421=VERTEX_POINT('',#1402);
#422=VERTEX_POINT('',#1404);
#423=VERTEX_POINT('',#1411);
#424=VERTEX_POINT('',#1415);
#425=VERTEX_POINT('',#1419);
#426=VERTEX_POINT('',#1425);
#427=VERTEX_POINT('',#1427);
#428=VERTEX_POINT('',#1431);
#429=VERTEX_POINT('',#1433);
#430=VERTEX_POINT('',#1437);
#431=VERTEX_POINT('',#1439);
#432=VERTEX_POINT('',#1443);
#433=VERTEX_POINT('',#1445);
#434=VERTEX_POINT('',#1449);
#435=VERTEX_POINT('',#1451);
#436=VERTEX_POINT('',#1455);
#437=VERTEX_POINT('',#1457);
#438=EDGE_CURVE('',#357,#358,#169,.T.);
#439=EDGE_CURVE('',#357,#359,#170,.T.);
#440=EDGE_CURVE('',#360,#359,#171,.T.);
#441=EDGE_CURVE('',#358,#360,#172,.T.);
#442=EDGE_CURVE('',#361,#358,#26,.T.);
#443=EDGE_CURVE('',#362,#360,#27,.T.);
#444=EDGE_CURVE('',#361,#362,#173,.T.);
#445=EDGE_CURVE('',#361,#363,#174,.T.);
#446=EDGE_CURVE('',#364,#362,#175,.T.);
#447=EDGE_CURVE('',#363,#364,#176,.T.);
#448=EDGE_CURVE('',#365,#363,#28,.T.);
#449=EDGE_CURVE('',#366,#364,#29,.T.);
#450=EDGE_CURVE('',#365,#366,#177,.T.);
#451=EDGE_CURVE('',#365,#367,#178,.T.);
#452=EDGE_CURVE('',#368,#366,#179,.T.);
#453=EDGE_CURVE('',#367,#368,#180,.T.);
#454=EDGE_CURVE('',#369,#367,#30,.T.);
#455=EDGE_CURVE('',#370,#368,#31,.T.);
#456=EDGE_CURVE('',#369,#370,#181,.T.);
#457=EDGE_CURVE('',#369,#371,#182,.T.);
#458=EDGE_CURVE('',#372,#370,#183,.T.);
#459=EDGE_CURVE('',#371,#372,#184,.T.);
#460=EDGE_CURVE('',#357,#371,#32,.T.);
#461=EDGE_CURVE('',#359,#372,#33,.T.);
#462=EDGE_CURVE('',#373,#374,#34,.T.);
#463=EDGE_CURVE('',#375,#373,#185,.T.);
#464=EDGE_CURVE('',#376,#375,#35,.T.);
#465=EDGE_CURVE('',#376,#374,#186,.T.);
#466=EDGE_CURVE('',#377,#376,#187,.T.);
#467=EDGE_CURVE('',#378,#377,#188,.T.);
#468=EDGE_CURVE('',#378,#374,#189,.T.);
#469=EDGE_CURVE('',#379,#375,#190,.T.);
#470=EDGE_CURVE('',#377,#379,#191,.T.);
#471=EDGE_CURVE('',#380,#380,#36,.T.);
#472=EDGE_CURVE('',#381,#381,#37,.T.);
#473=EDGE_CURVE('',#381,#380,#192,.T.);
#474=EDGE_CURVE('',#382,#373,#193,.T.);
#475=EDGE_CURVE('',#379,#382,#194,.T.);
#476=EDGE_CURVE('',#383,#379,#195,.T.);
#477=EDGE_CURVE('',#383,#384,#196,.T.);
#478=EDGE_CURVE('',#384,#385,#197,.T.);
#479=EDGE_CURVE('',#378,#385,#198,.T.);
#480=EDGE_CURVE('',#386,#387,#199,.T.);
#481=EDGE_CURVE('',#386,#388,#200,.T.);
#482=EDGE_CURVE('',#389,#388,#201,.T.);
#483=EDGE_CURVE('',#387,#389,#202,.T.);
#484=EDGE_CURVE('',#390,#386,#203,.T.);
#485=EDGE_CURVE('',#390,#391,#204,.T.);
#486=EDGE_CURVE('',#388,#391,#205,.T.);
#487=EDGE_CURVE('',#392,#390,#206,.T.);
#488=EDGE_CURVE('',#392,#393,#207,.T.);
#489=EDGE_CURVE('',#391,#393,#208,.T.);
#490=EDGE_CURVE('',#387,#392,#209,.T.);
#491=EDGE_CURVE('',#393,#389,#210,.T.);
#492=EDGE_CURVE('',#394,#395,#211,.T.);
#493=EDGE_CURVE('',#394,#396,#212,.T.);
#494=EDGE_CURVE('',#397,#396,#213,.T.);
#495=EDGE_CURVE('',#395,#397,#214,.T.);
#496=EDGE_CURVE('',#398,#394,#215,.T.);
#497=EDGE_CURVE('',#398,#399,#216,.T.);
#498=EDGE_CURVE('',#396,#399,#217,.T.);
#499=EDGE_CURVE('',#400,#398,#218,.T.);
#500=EDGE_CURVE('',#400,#401,#219,.T.);
#501=EDGE_CURVE('',#399,#401,#220,.T.);
#502=EDGE_CURVE('',#395,#400,#221,.T.);
#503=EDGE_CURVE('',#401,#397,#222,.T.);
#504=EDGE_CURVE('',#402,#403,#38,.T.);
#505=EDGE_CURVE('',#404,#402,#223,.T.);
#506=EDGE_CURVE('',#405,#404,#39,.T.);
#507=EDGE_CURVE('',#406,#405,#224,.T.);
#508=EDGE_CURVE('',#407,#406,#40,.T.);
#509=EDGE_CURVE('',#408,#407,#225,.T.);
#510=EDGE_CURVE('',#409,#408,#41,.T.);
#511=EDGE_CURVE('',#403,#409,#226,.T.);
#512=EDGE_CURVE('',#410,#405,#227,.T.);
#513=EDGE_CURVE('',#410,#411,#228,.T.);
#514=EDGE_CURVE('',#411,#406,#229,.T.);
#515=EDGE_CURVE('',#412,#404,#230,.T.);
#516=EDGE_CURVE('',#412,#410,#42,.T.);
#517=EDGE_CURVE('',#413,#402,#231,.T.);
#518=EDGE_CURVE('',#413,#412,#232,.T.);
#519=EDGE_CURVE('',#414,#403,#233,.T.);
#520=EDGE_CURVE('',#414,#413,#43,.T.);
#521=EDGE_CURVE('',#415,#416,#234,.T.);
#522=EDGE_CURVE('',#417,#415,#235,.T.);
#523=EDGE_CURVE('',#418,#417,#236,.T.);
#524=EDGE_CURVE('',#418,#416,#237,.T.);
#525=EDGE_CURVE('',#416,#419,#238,.T.);
#526=EDGE_CURVE('',#420,#418,#239,.T.);
#527=EDGE_CURVE('',#420,#419,#240,.T.);
#528=EDGE_CURVE('',#419,#421,#241,.T.);
#529=EDGE_CURVE('',#422,#420,#242,.T.);
#530=EDGE_CURVE('',#422,#421,#243,.T.);
#531=EDGE_CURVE('',#421,#415,#244,.T.);
#532=EDGE_CURVE('',#417,#422,#245,.T.);
#533=EDGE_CURVE('',#423,#409,#246,.T.);
#534=EDGE_CURVE('',#423,#414,#247,.T.);
#535=EDGE_CURVE('',#424,#408,#248,.T.);
#536=EDGE_CURVE('',#424,#423,#44,.T.);
#537=EDGE_CURVE('',#425,#407,#249,.T.);
#538=EDGE_CURVE('',#425,#424,#250,.T.);
#539=EDGE_CURVE('',#411,#425,#45,.T.);
#540=EDGE_CURVE('',#426,#383,#46,.T.);
#541=EDGE_CURVE('',#427,#382,#47,.T.);
#542=EDGE_CURVE('',#426,#427,#251,.T.);
#543=EDGE_CURVE('',#428,#426,#252,.T.);
#544=EDGE_CURVE('',#429,#427,#253,.T.);
#545=EDGE_CURVE('',#428,#429,#254,.T.);
#546=EDGE_CURVE('',#430,#428,#48,.T.);
#547=EDGE_CURVE('',#431,#429,#49,.T.);
#548=EDGE_CURVE('',#430,#431,#255,.T.);
#549=EDGE_CURVE('',#432,#430,#256,.T.);
#550=EDGE_CURVE('',#433,#431,#257,.T.);
#551=EDGE_CURVE('',#432,#433,#258,.T.);
#552=EDGE_CURVE('',#434,#432,#50,.T.);
#553=EDGE_CURVE('',#435,#433,#51,.T.);
#554=EDGE_CURVE('',#434,#435,#259,.T.);
#555=EDGE_CURVE('',#436,#434,#260,.T.);
#556=EDGE_CURVE('',#437,#435,#261,.T.);
#557=EDGE_CURVE('',#436,#437,#262,.T.);
#558=EDGE_CURVE('',#384,#436,#52,.T.);
#559=EDGE_CURVE('',#385,#437,#53,.T.);
#560=ORIENTED_EDGE('',*,*,#438,.F.);
#561=ORIENTED_EDGE('',*,*,#439,.T.);
#562=ORIENTED_EDGE('',*,*,#440,.F.);
#563=ORIENTED_EDGE('',*,*,#441,.F.);
#564=ORIENTED_EDGE('',*,*,#442,.T.);
#565=ORIENTED_EDGE('',*,*,#441,.T.);
#566=ORIENTED_EDGE('',*,*,#443,.F.);
#567=ORIENTED_EDGE('',*,*,#444,.F.);
#568=ORIENTED_EDGE('',*,*,#445,.F.);
#569=ORIENTED_EDGE('',*,*,#444,.T.);
#570=ORIENTED_EDGE('',*,*,#446,.F.);
#571=ORIENTED_EDGE('',*,*,#447,.F.);
#572=ORIENTED_EDGE('',*,*,#448,.T.);
#573=ORIENTED_EDGE('',*,*,#447,.T.);
#574=ORIENTED_EDGE('',*,*,#449,.F.);
#575=ORIENTED_EDGE('',*,*,#450,.F.);
#576=ORIENTED_EDGE('',*,*,#451,.F.);
#577=ORIENTED_EDGE('',*,*,#450,.T.);
#578=ORIENTED_EDGE('',*,*,#452,.F.);
#579=ORIENTED_EDGE('',*,*,#453,.F.);
#580=ORIENTED_EDGE('',*,*,#454,.T.);
#581=ORIENTED_EDGE('',*,*,#453,.T.);
#582=ORIENTED_EDGE('',*,*,#455,.F.);
#583=ORIENTED_EDGE('',*,*,#456,.F.);
#584=ORIENTED_EDGE('',*,*,#457,.F.);
#585=ORIENTED_EDGE('',*,*,#456,.T.);
#586=ORIENTED_EDGE('',*,*,#458,.F.);
#587=ORIENTED_EDGE('',*,*,#459,.F.);
#588=ORIENTED_EDGE('',*,*,#460,.T.);
#589=ORIENTED_EDGE('',*,*,#459,.T.);
#590=ORIENTED_EDGE('',*,*,#461,.F.);
#591=ORIENTED_EDGE('',*,*,#439,.F.);
#592=ORIENTED_EDGE('',*,*,#461,.T.);
#593=ORIENTED_EDGE('',*,*,#458,.T.);
#594=ORIENTED_EDGE('',*,*,#455,.T.);
#595=ORIENTED_EDGE('',*,*,#452,.T.);
#596=ORIENTED_EDGE('',*,*,#449,.T.);
#597=ORIENTED_EDGE('',*,*,#446,.T.);
#598=ORIENTED_EDGE('',*,*,#443,.T.);
#599=ORIENTED_EDGE('',*,*,#440,.T.);
#600=ORIENTED_EDGE('',*,*,#460,.F.);
#601=ORIENTED_EDGE('',*,*,#438,.T.);
#602=ORIENTED_EDGE('',*,*,#442,.F.);
#603=ORIENTED_EDGE('',*,*,#445,.T.);
#604=ORIENTED_EDGE('',*,*,#448,.F.);
#605=ORIENTED_EDGE('',*,*,#451,.T.);
#606=ORIENTED_EDGE('',*,*,#454,.F.);
#607=ORIENTED_EDGE('',*,*,#457,.T.);
#608=ORIENTED_EDGE('',*,*,#462,.F.);
#609=ORIENTED_EDGE('',*,*,#463,.F.);
#610=ORIENTED_EDGE('',*,*,#464,.F.);
#611=ORIENTED_EDGE('',*,*,#465,.T.);
#612=ORIENTED_EDGE('',*,*,#465,.F.);
#613=ORIENTED_EDGE('',*,*,#466,.F.);
#614=ORIENTED_EDGE('',*,*,#467,.F.);
#615=ORIENTED_EDGE('',*,*,#468,.T.);
#616=ORIENTED_EDGE('',*,*,#464,.T.);
#617=ORIENTED_EDGE('',*,*,#469,.F.);
#618=ORIENTED_EDGE('',*,*,#470,.F.);
#619=ORIENTED_EDGE('',*,*,#466,.T.);
#620=ORIENTED_EDGE('',*,*,#471,.T.);
#621=ORIENTED_EDGE('',*,*,#472,.F.);
#622=ORIENTED_EDGE('',*,*,#473,.T.);
#623=ORIENTED_EDGE('',*,*,#471,.F.);
#624=ORIENTED_EDGE('',*,*,#473,.F.);
#625=ORIENTED_EDGE('',*,*,#463,.T.);
#626=ORIENTED_EDGE('',*,*,#474,.F.);
#627=ORIENTED_EDGE('',*,*,#475,.F.);
#628=ORIENTED_EDGE('',*,*,#469,.T.);
#629=ORIENTED_EDGE('',*,*,#467,.T.);
#630=ORIENTED_EDGE('',*,*,#470,.T.);
#631=ORIENTED_EDGE('',*,*,#476,.F.);
#632=ORIENTED_EDGE('',*,*,#477,.T.);
#633=ORIENTED_EDGE('',*,*,#478,.T.);
#634=ORIENTED_EDGE('',*,*,#479,.F.);
#635=ORIENTED_EDGE('',*,*,#480,.F.);
#636=ORIENTED_EDGE('',*,*,#481,.T.);
#637=ORIENTED_EDGE('',*,*,#482,.F.);
#638=ORIENTED_EDGE('',*,*,#483,.F.);
#639=ORIENTED_EDGE('',*,*,#484,.F.);
#640=ORIENTED_EDGE('',*,*,#485,.T.);
#641=ORIENTED_EDGE('',*,*,#486,.F.);
#642=ORIENTED_EDGE('',*,*,#481,.F.);
#643=ORIENTED_EDGE('',*,*,#487,.F.);
#644=ORIENTED_EDGE('',*,*,#488,.T.);
#645=ORIENTED_EDGE('',*,*,#489,.F.);
#646=ORIENTED_EDGE('',*,*,#485,.F.);
#647=ORIENTED_EDGE('',*,*,#490,.F.);
#648=ORIENTED_EDGE('',*,*,#483,.T.);
#649=ORIENTED_EDGE('',*,*,#491,.F.);
#650=ORIENTED_EDGE('',*,*,#488,.F.);
#651=ORIENTED_EDGE('',*,*,#492,.F.);
#652=ORIENTED_EDGE('',*,*,#493,.T.);
#653=ORIENTED_EDGE('',*,*,#494,.F.);
#654=ORIENTED_EDGE('',*,*,#495,.F.);
#655=ORIENTED_EDGE('',*,*,#496,.F.);
#656=ORIENTED_EDGE('',*,*,#497,.T.);
#657=ORIENTED_EDGE('',*,*,#498,.F.);
#658=ORIENTED_EDGE('',*,*,#493,.F.);
#659=ORIENTED_EDGE('',*,*,#499,.F.);
#660=ORIENTED_EDGE('',*,*,#500,.T.);
#661=ORIENTED_EDGE('',*,*,#501,.F.);
#662=ORIENTED_EDGE('',*,*,#497,.F.);
#663=ORIENTED_EDGE('',*,*,#502,.F.);
#664=ORIENTED_EDGE('',*,*,#495,.T.);
#665=ORIENTED_EDGE('',*,*,#503,.F.);
#666=ORIENTED_EDGE('',*,*,#500,.F.);
#667=ORIENTED_EDGE('',*,*,#504,.F.);
#668=ORIENTED_EDGE('',*,*,#505,.F.);
#669=ORIENTED_EDGE('',*,*,#506,.F.);
#670=ORIENTED_EDGE('',*,*,#507,.F.);
#671=ORIENTED_EDGE('',*,*,#508,.F.);
#672=ORIENTED_EDGE('',*,*,#509,.F.);
#673=ORIENTED_EDGE('',*,*,#510,.F.);
#674=ORIENTED_EDGE('',*,*,#511,.F.);
#675=ORIENTED_EDGE('',*,*,#482,.T.);
#676=ORIENTED_EDGE('',*,*,#486,.T.);
#677=ORIENTED_EDGE('',*,*,#489,.T.);
#678=ORIENTED_EDGE('',*,*,#491,.T.);
#679=ORIENTED_EDGE('',*,*,#494,.T.);
#680=ORIENTED_EDGE('',*,*,#498,.T.);
#681=ORIENTED_EDGE('',*,*,#501,.T.);
#682=ORIENTED_EDGE('',*,*,#503,.T.);
#683=ORIENTED_EDGE('',*,*,#507,.T.);
#684=ORIENTED_EDGE('',*,*,#512,.F.);
#685=ORIENTED_EDGE('',*,*,#513,.T.);
#686=ORIENTED_EDGE('',*,*,#514,.T.);
#687=ORIENTED_EDGE('',*,*,#506,.T.);
#688=ORIENTED_EDGE('',*,*,#515,.F.);
#689=ORIENTED_EDGE('',*,*,#516,.T.);
#690=ORIENTED_EDGE('',*,*,#512,.T.);
#691=ORIENTED_EDGE('',*,*,#505,.T.);
#692=ORIENTED_EDGE('',*,*,#517,.F.);
#693=ORIENTED_EDGE('',*,*,#518,.T.);
#694=ORIENTED_EDGE('',*,*,#515,.T.);
#695=ORIENTED_EDGE('',*,*,#504,.T.);
#696=ORIENTED_EDGE('',*,*,#519,.F.);
#697=ORIENTED_EDGE('',*,*,#520,.T.);
#698=ORIENTED_EDGE('',*,*,#517,.T.);
#699=ORIENTED_EDGE('',*,*,#521,.F.);
#700=ORIENTED_EDGE('',*,*,#522,.F.);
#701=ORIENTED_EDGE('',*,*,#523,.F.);
#702=ORIENTED_EDGE('',*,*,#524,.T.);
#703=ORIENTED_EDGE('',*,*,#525,.F.);
#704=ORIENTED_EDGE('',*,*,#524,.F.);
#705=ORIENTED_EDGE('',*,*,#526,.F.);
#706=ORIENTED_EDGE('',*,*,#527,.T.);
#707=ORIENTED_EDGE('',*,*,#528,.F.);
#708=ORIENTED_EDGE('',*,*,#527,.F.);
#709=ORIENTED_EDGE('',*,*,#529,.F.);
#710=ORIENTED_EDGE('',*,*,#530,.T.);
#711=ORIENTED_EDGE('',*,*,#531,.F.);
#712=ORIENTED_EDGE('',*,*,#530,.F.);
#713=ORIENTED_EDGE('',*,*,#532,.F.);
#714=ORIENTED_EDGE('',*,*,#522,.T.);
#715=ORIENTED_EDGE('',*,*,#511,.T.);
#716=ORIENTED_EDGE('',*,*,#533,.F.);
#717=ORIENTED_EDGE('',*,*,#534,.T.);
#718=ORIENTED_EDGE('',*,*,#519,.T.);
#719=ORIENTED_EDGE('',*,*,#510,.T.);
#720=ORIENTED_EDGE('',*,*,#535,.F.);
#721=ORIENTED_EDGE('',*,*,#536,.T.);
#722=ORIENTED_EDGE('',*,*,#533,.T.);
#723=ORIENTED_EDGE('',*,*,#509,.T.);
#724=ORIENTED_EDGE('',*,*,#537,.F.);
#725=ORIENTED_EDGE('',*,*,#538,.T.);
#726=ORIENTED_EDGE('',*,*,#535,.T.);
#727=ORIENTED_EDGE('',*,*,#528,.T.);
#728=ORIENTED_EDGE('',*,*,#531,.T.);
#729=ORIENTED_EDGE('',*,*,#521,.T.);
#730=ORIENTED_EDGE('',*,*,#525,.T.);
#731=ORIENTED_EDGE('',*,*,#508,.T.);
#732=ORIENTED_EDGE('',*,*,#514,.F.);
#733=ORIENTED_EDGE('',*,*,#539,.T.);
#734=ORIENTED_EDGE('',*,*,#537,.T.);
#735=ORIENTED_EDGE('',*,*,#540,.T.);
#736=ORIENTED_EDGE('',*,*,#476,.T.);
#737=ORIENTED_EDGE('',*,*,#475,.T.);
#738=ORIENTED_EDGE('',*,*,#541,.F.);
#739=ORIENTED_EDGE('',*,*,#542,.F.);
#740=ORIENTED_EDGE('',*,*,#543,.T.);
#741=ORIENTED_EDGE('',*,*,#542,.T.);
#742=ORIENTED_EDGE('',*,*,#544,.F.);
#743=ORIENTED_EDGE('',*,*,#545,.F.);
#744=ORIENTED_EDGE('',*,*,#546,.T.);
#745=ORIENTED_EDGE('',*,*,#545,.T.);
#746=ORIENTED_EDGE('',*,*,#547,.F.);
#747=ORIENTED_EDGE('',*,*,#548,.F.);
#748=ORIENTED_EDGE('',*,*,#549,.T.);
#749=ORIENTED_EDGE('',*,*,#548,.T.);
#750=ORIENTED_EDGE('',*,*,#550,.F.);
#751=ORIENTED_EDGE('',*,*,#551,.F.);
#752=ORIENTED_EDGE('',*,*,#552,.T.);
#753=ORIENTED_EDGE('',*,*,#551,.T.);
#754=ORIENTED_EDGE('',*,*,#553,.F.);
#755=ORIENTED_EDGE('',*,*,#554,.F.);
#756=ORIENTED_EDGE('',*,*,#555,.T.);
#757=ORIENTED_EDGE('',*,*,#554,.T.);
#758=ORIENTED_EDGE('',*,*,#556,.F.);
#759=ORIENTED_EDGE('',*,*,#557,.F.);
#760=ORIENTED_EDGE('',*,*,#529,.T.);
#761=ORIENTED_EDGE('',*,*,#526,.T.);
#762=ORIENTED_EDGE('',*,*,#523,.T.);
#763=ORIENTED_EDGE('',*,*,#532,.T.);
#764=ORIENTED_EDGE('',*,*,#558,.T.);
#765=ORIENTED_EDGE('',*,*,#557,.T.);
#766=ORIENTED_EDGE('',*,*,#559,.F.);
#767=ORIENTED_EDGE('',*,*,#478,.F.);
#768=ORIENTED_EDGE('',*,*,#462,.T.);
#769=ORIENTED_EDGE('',*,*,#468,.F.);
#770=ORIENTED_EDGE('',*,*,#479,.T.);
#771=ORIENTED_EDGE('',*,*,#559,.T.);
#772=ORIENTED_EDGE('',*,*,#556,.T.);
#773=ORIENTED_EDGE('',*,*,#553,.T.);
#774=ORIENTED_EDGE('',*,*,#550,.T.);
#775=ORIENTED_EDGE('',*,*,#547,.T.);
#776=ORIENTED_EDGE('',*,*,#544,.T.);
#777=ORIENTED_EDGE('',*,*,#541,.T.);
#778=ORIENTED_EDGE('',*,*,#474,.T.);
#779=ORIENTED_EDGE('',*,*,#472,.T.);
#780=ORIENTED_EDGE('',*,*,#480,.T.);
#781=ORIENTED_EDGE('',*,*,#490,.T.);
#782=ORIENTED_EDGE('',*,*,#487,.T.);
#783=ORIENTED_EDGE('',*,*,#484,.T.);
#784=ORIENTED_EDGE('',*,*,#492,.T.);
#785=ORIENTED_EDGE('',*,*,#502,.T.);
#786=ORIENTED_EDGE('',*,*,#499,.T.);
#787=ORIENTED_EDGE('',*,*,#496,.T.);
#788=ORIENTED_EDGE('',*,*,#558,.F.);
#789=ORIENTED_EDGE('',*,*,#477,.F.);
#790=ORIENTED_EDGE('',*,*,#540,.F.);
#791=ORIENTED_EDGE('',*,*,#543,.F.);
#792=ORIENTED_EDGE('',*,*,#546,.F.);
#793=ORIENTED_EDGE('',*,*,#549,.F.);
#794=ORIENTED_EDGE('',*,*,#552,.F.);
#795=ORIENTED_EDGE('',*,*,#555,.F.);
#796=ORIENTED_EDGE('',*,*,#518,.F.);
#797=ORIENTED_EDGE('',*,*,#520,.F.);
#798=ORIENTED_EDGE('',*,*,#534,.F.);
#799=ORIENTED_EDGE('',*,*,#536,.F.);
#800=ORIENTED_EDGE('',*,*,#538,.F.);
#801=ORIENTED_EDGE('',*,*,#539,.F.);
#802=ORIENTED_EDGE('',*,*,#513,.F.);
#803=ORIENTED_EDGE('',*,*,#516,.F.);
#804=PLANE('',#897);
#805=PLANE('',#901);
#806=PLANE('',#905);
#807=PLANE('',#909);
#808=PLANE('',#913);
#809=PLANE('',#914);
#810=PLANE('',#918);
#811=PLANE('',#919);
#812=PLANE('',#923);
#813=PLANE('',#924);
#814=PLANE('',#925);
#815=PLANE('',#926);
#816=PLANE('',#927);
#817=PLANE('',#928);
#818=PLANE('',#929);
#819=PLANE('',#930);
#820=PLANE('',#931);
#821=PLANE('',#932);
#822=PLANE('',#933);
#823=PLANE('',#938);
#824=PLANE('',#941);
#825=PLANE('',#944);
#826=PLANE('',#945);
#827=PLANE('',#946);
#828=PLANE('',#947);
#829=PLANE('',#948);
#830=PLANE('',#951);
#831=PLANE('',#957);
#832=PLANE('',#961);
#833=PLANE('',#965);
#834=PLANE('',#969);
#835=PLANE('',#970);
#836=ADVANCED_FACE('',(#68),#804,.T.);
#837=ADVANCED_FACE('',(#69),#54,.T.);
#838=ADVANCED_FACE('',(#70),#805,.T.);
#839=ADVANCED_FACE('',(#71),#55,.T.);
#840=ADVANCED_FACE('',(#72),#806,.T.);
#841=ADVANCED_FACE('',(#73),#56,.T.);
#842=ADVANCED_FACE('',(#74),#807,.T.);
#843=ADVANCED_FACE('',(#75),#57,.T.);
#844=ADVANCED_FACE('',(#76),#808,.T.);
#845=ADVANCED_FACE('',(#77),#809,.F.);
#846=ADVANCED_FACE('',(#78),#58,.T.);
#847=ADVANCED_FACE('',(#79),#810,.T.);
#848=ADVANCED_FACE('',(#80,#13),#811,.T.);
#849=ADVANCED_FACE('',(#81),#59,.F.);
#850=ADVANCED_FACE('',(#82),#812,.T.);
#851=ADVANCED_FACE('',(#83),#813,.T.);
#852=ADVANCED_FACE('',(#84),#814,.F.);
#853=ADVANCED_FACE('',(#85),#815,.F.);
#854=ADVANCED_FACE('',(#86),#816,.F.);
#855=ADVANCED_FACE('',(#87),#817,.F.);
#856=ADVANCED_FACE('',(#88),#818,.F.);
#857=ADVANCED_FACE('',(#89),#819,.F.);
#858=ADVANCED_FACE('',(#90),#820,.F.);
#859=ADVANCED_FACE('',(#91),#821,.F.);
#860=ADVANCED_FACE('',(#92,#14,#15),#822,.F.);
#861=ADVANCED_FACE('',(#93),#823,.T.);
#862=ADVANCED_FACE('',(#94),#60,.F.);
#863=ADVANCED_FACE('',(#95),#824,.T.);
#864=ADVANCED_FACE('',(#96),#61,.F.);
#865=ADVANCED_FACE('',(#97),#825,.F.);
#866=ADVANCED_FACE('',(#98),#826,.F.);
#867=ADVANCED_FACE('',(#99),#827,.F.);
#868=ADVANCED_FACE('',(#100),#828,.F.);
#869=ADVANCED_FACE('',(#101),#829,.T.);
#870=ADVANCED_FACE('',(#102),#62,.F.);
#871=ADVANCED_FACE('',(#103,#16),#830,.T.);
#872=ADVANCED_FACE('',(#104),#63,.F.);
#873=ADVANCED_FACE('',(#105),#64,.T.);
#874=ADVANCED_FACE('',(#106),#831,.T.);
#875=ADVANCED_FACE('',(#107),#65,.T.);
#876=ADVANCED_FACE('',(#108),#832,.T.);
#877=ADVANCED_FACE('',(#109),#66,.T.);
#878=ADVANCED_FACE('',(#110,#17),#833,.T.);
#879=ADVANCED_FACE('',(#111),#67,.T.);
#880=ADVANCED_FACE('',(#112,#18,#19,#20),#834,.T.);
#881=ADVANCED_FACE('',(#113,#21),#835,.F.);
#882=CLOSED_SHELL('',(#836,#837,#838,#839,#840,#841,#842,#843,#844,#845));
#883=CLOSED_SHELL('',(#846,#847,#848,#849,#850,#851,#852,#853,#854,#855,
#856,#857,#858,#859,#860,#861,#862,#863,#864,#865,#866,#867,#868,#869,#870,
#871,#872,#873,#874,#875,#876,#877,#878,#879,#880,#881));
#884=DERIVED_UNIT_ELEMENT(#886,1.);
#885=DERIVED_UNIT_ELEMENT(#1470,-3.);
#886=(
MASS_UNIT()
NAMED_UNIT(*)
SI_UNIT(.KILO.,.GRAM.)
);
#887=DERIVED_UNIT((#884,#885));
#888=MEASURE_REPRESENTATION_ITEM('density measure',
POSITIVE_RATIO_MEASURE(7850.),#887);
#889=PROPERTY_DEFINITION_REPRESENTATION(#894,#891);
#890=PROPERTY_DEFINITION_REPRESENTATION(#895,#892);
#891=REPRESENTATION('material name',(#893),#1467);
#892=REPRESENTATION('density',(#888),#1467);
#893=DESCRIPTIVE_REPRESENTATION_ITEM('Steel','Steel');
#894=PROPERTY_DEFINITION('material property','material name',#1477);
#895=PROPERTY_DEFINITION('material property','density of part',#1477);
#896=AXIS2_PLACEMENT_3D('',#1215,#971,#972);
#897=AXIS2_PLACEMENT_3D('',#1216,#973,#974);
#898=AXIS2_PLACEMENT_3D('',#1225,#979,#980);
#899=AXIS2_PLACEMENT_3D('',#1227,#981,#982);
#900=AXIS2_PLACEMENT_3D('',#1229,#983,#984);
#901=AXIS2_PLACEMENT_3D('',#1231,#986,#987);
#902=AXIS2_PLACEMENT_3D('',#1237,#991,#992);
#903=AXIS2_PLACEMENT_3D('',#1239,#993,#994);
#904=AXIS2_PLACEMENT_3D('',#1241,#995,#996);
#905=AXIS2_PLACEMENT_3D('',#1243,#998,#999);
#906=AXIS2_PLACEMENT_3D('',#1249,#1003,#1004);
#907=AXIS2_PLACEMENT_3D('',#1251,#1005,#1006);
#908=AXIS2_PLACEMENT_3D('',#1253,#1007,#1008);
#909=AXIS2_PLACEMENT_3D('',#1255,#1010,#1011);
#910=AXIS2_PLACEMENT_3D('',#1261,#1015,#1016);
#911=AXIS2_PLACEMENT_3D('',#1262,#1017,#1018);
#912=AXIS2_PLACEMENT_3D('',#1263,#1019,#1020);
#913=AXIS2_PLACEMENT_3D('',#1264,#1021,#1022);
#914=AXIS2_PLACEMENT_3D('',#1265,#1023,#1024);
#915=AXIS2_PLACEMENT_3D('',#1266,#1025,#1026);
#916=AXIS2_PLACEMENT_3D('',#1269,#1027,#1028);
#917=AXIS2_PLACEMENT_3D('',#1273,#1030,#1031);
#918=AXIS2_PLACEMENT_3D('',#1275,#1033,#1034);
#919=AXIS2_PLACEMENT_3D('',#1281,#1038,#1039);
#920=AXIS2_PLACEMENT_3D('',#1286,#1042,#1043);
#921=AXIS2_PLACEMENT_3D('',#1287,#1044,#1045);
#922=AXIS2_PLACEMENT_3D('',#1289,#1046,#1047);
#923=AXIS2_PLACEMENT_3D('',#1291,#1049,#1050);
#924=AXIS2_PLACEMENT_3D('',#1295,#1053,#1054);
#925=AXIS2_PLACEMENT_3D('',#1303,#1059,#1060);
#926=AXIS2_PLACEMENT_3D('',#1312,#1065,#1066);
#927=AXIS2_PLACEMENT_3D('',#1318,#1070,#1071);
#928=AXIS2_PLACEMENT_3D('',#1324,#1075,#1076);
#929=AXIS2_PLACEMENT_3D('',#1327,#1079,#1080);
#930=AXIS2_PLACEMENT_3D('',#1336,#1085,#1086);
#931=AXIS2_PLACEMENT_3D('',#1342,#1090,#1091);
#932=AXIS2_PLACEMENT_3D('',#1348,#1095,#1096);
#933=AXIS2_PLACEMENT_3D('',#1351,#1099,#1100);
#934=AXIS2_PLACEMENT_3D('',#1354,#1101,#1102);
#935=AXIS2_PLACEMENT_3D('',#1358,#1104,#1105);
#936=AXIS2_PLACEMENT_3D('',#1362,#1107,#1108);
#937=AXIS2_PLACEMENT_3D('',#1366,#1110,#1111);
#938=AXIS2_PLACEMENT_3D('',#1368,#1113,#1114);
#939=AXIS2_PLACEMENT_3D('',#1374,#1118,#1119);
#940=AXIS2_PLACEMENT_3D('',#1377,#1121,#1122);
#941=AXIS2_PLACEMENT_3D('',#1378,#1123,#1124);
#942=AXIS2_PLACEMENT_3D('',#1382,#1127,#1128);
#943=AXIS2_PLACEMENT_3D('',#1385,#1130,#1131);
#944=AXIS2_PLACEMENT_3D('',#1386,#1132,#1133);
#945=AXIS2_PLACEMENT_3D('',#1395,#1138,#1139);
#946=AXIS2_PLACEMENT_3D('',#1401,#1143,#1144);
#947=AXIS2_PLACEMENT_3D('',#1407,#1148,#1149);
#948=AXIS2_PLACEMENT_3D('',#1410,#1152,#1153);
#949=AXIS2_PLACEMENT_3D('',#1414,#1156,#1157);
#950=AXIS2_PLACEMENT_3D('',#1417,#1159,#1160);
#951=AXIS2_PLACEMENT_3D('',#1418,#1161,#1162);
#952=AXIS2_PLACEMENT_3D('',#1422,#1165,#1166);
#953=AXIS2_PLACEMENT_3D('',#1423,#1167,#1168);
#954=AXIS2_PLACEMENT_3D('',#1424,#1169,#1170);
#955=AXIS2_PLACEMENT_3D('',#1426,#1171,#1172);
#956=AXIS2_PLACEMENT_3D('',#1428,#1173,#1174);
#957=AXIS2_PLACEMENT_3D('',#1430,#1176,#1177);
#958=AXIS2_PLACEMENT_3D('',#1436,#1181,#1182);
#959=AXIS2_PLACEMENT_3D('',#1438,#1183,#1184);
#960=AXIS2_PLACEMENT_3D('',#1440,#1185,#1186);
#961=AXIS2_PLACEMENT_3D('',#1442,#1188,#1189);
#962=AXIS2_PLACEMENT_3D('',#1448,#1193,#1194);
#963=AXIS2_PLACEMENT_3D('',#1450,#1195,#1196);
#964=AXIS2_PLACEMENT_3D('',#1452,#1197,#1198);
#965=AXIS2_PLACEMENT_3D('',#1454,#1200,#1201);
#966=AXIS2_PLACEMENT_3D('',#1460,#1205,#1206);
#967=AXIS2_PLACEMENT_3D('',#1461,#1207,#1208);
#968=AXIS2_PLACEMENT_3D('',#1462,#1209,#1210);
#969=AXIS2_PLACEMENT_3D('',#1463,#1211,#1212);
#970=AXIS2_PLACEMENT_3D('',#1464,#1213,#1214);
#971=DIRECTION('axis',(0.,0.,1.));
#972=DIRECTION('refdir',(1.,0.,0.));
#973=DIRECTION('center_axis',(0.,0.,-1.));
#974=DIRECTION('ref_axis',(-1.,0.,0.));
#975=DIRECTION('',(1.,0.,0.));
#976=DIRECTION('',(0.,1.,0.));
#977=DIRECTION('',(-1.,0.,0.));
#978=DIRECTION('',(0.,1.,0.));
#979=DIRECTION('center_axis',(0.,1.,0.));
#980=DIRECTION('ref_axis',(1.,0.,1.11022302462516E-15));
#981=DIRECTION('center_axis',(0.,1.,0.));
#982=DIRECTION('ref_axis',(1.,0.,1.11022302462516E-15));
#983=DIRECTION('center_axis',(0.,1.,0.));
#984=DIRECTION('ref_axis',(1.,0.,1.11022302462516E-15));
#985=DIRECTION('',(0.,1.,0.));
#986=DIRECTION('center_axis',(1.,0.,-4.62592926927149E-17));
#987=DIRECTION('ref_axis',(-4.62592926927149E-17,0.,-1.));
#988=DIRECTION('',(4.62592926927149E-17,0.,1.));
#989=DIRECTION('',(-4.62592926927149E-17,0.,-1.));
#990=DIRECTION('',(0.,1.,0.));
#991=DIRECTION('center_axis',(0.,1.,0.));
#992=DIRECTION('ref_axis',(5.55111512312578E-16,0.,1.));
#993=DIRECTION('center_axis',(0.,1.,0.));
#994=DIRECTION('ref_axis',(5.55111512312578E-16,0.,1.));
#995=DIRECTION('center_axis',(0.,1.,0.));
#996=DIRECTION('ref_axis',(5.55111512312578E-16,0.,1.));
#997=DIRECTION('',(0.,1.,0.));
#998=DIRECTION('center_axis',(0.,0.,1.));
#999=DIRECTION('ref_axis',(1.,0.,0.));
#1000=DIRECTION('',(-1.,0.,0.));
#1001=DIRECTION('',(1.,0.,0.));
#1002=DIRECTION('',(0.,1.,0.));
#1003=DIRECTION('center_axis',(0.,1.,0.));
#1004=DIRECTION('ref_axis',(-1.,0.,5.55111512312578E-16));
#1005=DIRECTION('center_axis',(0.,1.,0.));
#1006=DIRECTION('ref_axis',(-1.,0.,5.55111512312578E-16));
#1007=DIRECTION('center_axis',(0.,1.,0.));
#1008=DIRECTION('ref_axis',(-1.,0.,5.55111512312578E-16));
#1009=DIRECTION('',(0.,1.,0.));
#1010=DIRECTION('center_axis',(-1.,0.,4.62592926927149E-17));
#1011=DIRECTION('ref_axis',(4.62592926927149E-17,0.,1.));
#1012=DIRECTION('',(-4.62592926927149E-17,0.,-1.));
#1013=DIRECTION('',(4.62592926927149E-17,0.,1.));
#1014=DIRECTION('',(0.,1.,0.));
#1015=DIRECTION('center_axis',(0.,1.,0.));
#1016=DIRECTION('ref_axis',(2.49800180540661E-15,0.,-1.));
#1017=DIRECTION('center_axis',(0.,1.,0.));
#1018=DIRECTION('ref_axis',(2.49800180540661E-15,0.,-1.));
#1019=DIRECTION('center_axis',(0.,1.,0.));
#1020=DIRECTION('ref_axis',(2.49800180540661E-15,0.,-1.));
#1021=DIRECTION('center_axis',(0.,1.,0.));
#1022=DIRECTION('ref_axis',(1.,0.,0.));
#1023=DIRECTION('center_axis',(0.,1.,0.));
#1024=DIRECTION('ref_axis',(1.,0.,0.));
#1025=DIRECTION('center_axis',(0.,-1.,0.));
#1026=DIRECTION('ref_axis',(1.77635683940025E-15,0.,-1.));
#1027=DIRECTION('center_axis',(0.,1.,0.));
#1028=DIRECTION('ref_axis',(1.77635683940025E-15,0.,-1.));
#1029=DIRECTION('',(0.,1.,0.));
#1030=DIRECTION('center_axis',(0.,-1.,0.));
#1031=DIRECTION('ref_axis',(1.77635683940025E-15,0.,-1.));
#1032=DIRECTION('',(0.,1.,0.));
#1033=DIRECTION('center_axis',(0.,0.,1.));
#1034=DIRECTION('ref_axis',(0.,1.,0.));
#1035=DIRECTION('',(-1.,0.,0.));
#1036=DIRECTION('',(0.,-1.,0.));
#1037=DIRECTION('',(-1.,0.,0.));
#1038=DIRECTION('center_axis',(0.,-1.,0.));
#1039=DIRECTION('ref_axis',(0.,0.,1.));
#1040=DIRECTION('',(-1.,0.,0.));
#1041=DIRECTION('',(4.44089209850063E-17,0.,-1.));
#1042=DIRECTION('center_axis',(0.,1.,0.));
#1043=DIRECTION('ref_axis',(-1.,0.,0.));
#1044=DIRECTION('center_axis',(0.,-1.,0.));
#1045=DIRECTION('ref_axis',(-1.,0.,0.));
#1046=DIRECTION('center_axis',(0.,-1.,0.));
#1047=DIRECTION('ref_axis',(-1.,0.,0.));
#1048=DIRECTION('',(0.,-1.,0.));
#1049=DIRECTION('center_axis',(0.,0.,-1.));
#1050=DIRECTION('ref_axis',(0.,-1.,0.));
#1051=DIRECTION('',(-1.,0.,0.));
#1052=DIRECTION('',(0.,1.,0.));
#1053=DIRECTION('center_axis',(-1.,0.,-4.44089209850063E-17));
#1054=DIRECTION('ref_axis',(-4.44089209850063E-17,0.,1.));
#1055=DIRECTION('',(0.,1.,0.));
#1056=DIRECTION('',(-4.44089209850063E-17,0.,1.));
#1057=DIRECTION('',(0.,1.,0.));
#1058=DIRECTION('',(-4.44089209850063E-17,0.,1.));
#1059=DIRECTION('center_axis',(1.,0.,0.));
#1060=DIRECTION('ref_axis',(0.,0.,1.));
#1061=DIRECTION('',(0.,0.,1.));
#1062=DIRECTION('',(0.,-1.,0.));
#1063=DIRECTION('',(0.,0.,-1.));
#1064=DIRECTION('',(0.,-1.,0.));
#1065=DIRECTION('center_axis',(0.,0.,-1.));
#1066=DIRECTION('ref_axis',(1.,0.,0.));
#1067=DIRECTION('',(1.,0.,0.));
#1068=DIRECTION('',(0.,-1.,0.));
#1069=DIRECTION('',(-1.,0.,0.));
#1070=DIRECTION('center_axis',(-1.,0.,0.));
#1071=DIRECTION('ref_axis',(0.,0.,-1.));
#1072=DIRECTION('',(0.,0.,-1.));
#1073=DIRECTION('',(0.,-1.,0.));
#1074=DIRECTION('',(0.,0.,1.));
#1075=DIRECTION('center_axis',(0.,0.,1.));
#1076=DIRECTION('ref_axis',(-1.,0.,0.));
#1077=DIRECTION('',(-1.,0.,0.));
#1078=DIRECTION('',(1.,0.,0.));
#1079=DIRECTION('center_axis',(0.,0.,1.));
#1080=DIRECTION('ref_axis',(-1.,0.,0.));
#1081=DIRECTION('',(-1.,0.,0.));
#1082=DIRECTION('',(0.,-1.,0.));
#1083=DIRECTION('',(1.,0.,0.));
#1084=DIRECTION('',(0.,-1.,0.));
#1085=DIRECTION('center_axis',(1.,0.,0.));
#1086=DIRECTION('ref_axis',(0.,0.,1.));
#1087=DIRECTION('',(0.,0.,1.));
#1088=DIRECTION('',(0.,-1.,0.));
#1089=DIRECTION('',(0.,0.,-1.));
#1090=DIRECTION('center_axis',(0.,0.,-1.));
#1091=DIRECTION('ref_axis',(1.,0.,0.));
#1092=DIRECTION('',(1.,0.,0.));
#1093=DIRECTION('',(0.,-1.,0.));
#1094=DIRECTION('',(-1.,0.,0.));
#1095=DIRECTION('center_axis',(-1.,0.,0.));
#1096=DIRECTION('ref_axis',(0.,0.,-1.));
#1097=DIRECTION('',(0.,0.,-1.));
#1098=DIRECTION('',(0.,0.,1.));
#1099=DIRECTION('center_axis',(0.,1.,0.));
#1100=DIRECTION('ref_axis',(1.,0.,0.));
#1101=DIRECTION('center_axis',(0.,1.,0.));
#1102=DIRECTION('ref_axis',(2.77555756156289E-15,0.,-1.));
#1103=DIRECTION('',(-1.,0.,0.));
#1104=DIRECTION('center_axis',(0.,1.,0.));
#1105=DIRECTION('ref_axis',(1.,0.,2.22044604925032E-15));
#1106=DIRECTION('',(-4.62592926927149E-17,0.,-1.));
#1107=DIRECTION('center_axis',(0.,1.,0.));
#1108=DIRECTION('ref_axis',(1.66533453693774E-15,0.,1.));
#1109=DIRECTION('',(1.,0.,-2.22044604925031E-16));
#1110=DIRECTION('center_axis',(0.,1.,0.));
#1111=DIRECTION('ref_axis',(-1.,0.,-5.55111512312578E-16));
#1112=DIRECTION('',(9.25185853854297E-17,0.,1.));
#1113=DIRECTION('center_axis',(-1.,0.,4.62592926927149E-17));
#1114=DIRECTION('ref_axis',(4.62592926927149E-17,0.,1.));
#1115=DIRECTION('',(0.,1.,0.));
#1116=DIRECTION('',(4.62592926927149E-17,0.,1.));
#1117=DIRECTION('',(0.,1.,0.));
#1118=DIRECTION('center_axis',(0.,1.,0.));
#1119=DIRECTION('ref_axis',(1.,0.,2.22044604925032E-15));
#1120=DIRECTION('',(0.,1.,0.));
#1121=DIRECTION('center_axis',(0.,-1.,0.));
#1122=DIRECTION('ref_axis',(1.,0.,2.22044604925032E-15));
#1123=DIRECTION('center_axis',(0.,0.,1.));
#1124=DIRECTION('ref_axis',(1.,0.,0.));
#1125=DIRECTION('',(0.,1.,0.));
#1126=DIRECTION('',(1.,0.,0.));
#1127=DIRECTION('center_axis',(0.,1.,0.));
#1128=DIRECTION('ref_axis',(2.77555756156289E-15,0.,-1.));
#1129=DIRECTION('',(0.,1.,0.));
#1130=DIRECTION('center_axis',(0.,-1.,0.));
#1131=DIRECTION('ref_axis',(2.77555756156289E-15,0.,-1.));
#1132=DIRECTION('center_axis',(-1.,0.,0.));
#1133=DIRECTION('ref_axis',(0.,1.,0.));
#1134=DIRECTION('',(0.,-1.,0.));
#1135=DIRECTION('',(0.,0.,-1.));
#1136=DIRECTION('',(0.,1.,0.));
#1137=DIRECTION('',(0.,0.,-1.));
#1138=DIRECTION('center_axis',(0.,-1.,0.));
#1139=DIRECTION('ref_axis',(-1.,0.,0.));
#1140=DIRECTION('',(1.,0.,-2.22044604925031E-16));
#1141=DIRECTION('',(-1.,0.,-1.00929365875014E-16));
#1142=DIRECTION('',(0.,0.,-1.));
#1143=DIRECTION('center_axis',(1.,0.,0.));
#1144=DIRECTION('ref_axis',(0.,-1.,0.));
#1145=DIRECTION('',(0.,1.,0.));
#1146=DIRECTION('',(0.,-1.,0.));
#1147=DIRECTION('',(0.,0.,-1.));
#1148=DIRECTION('center_axis',(0.,1.,0.));
#1149=DIRECTION('ref_axis',(1.,0.,0.));
#1150=DIRECTION('',(-1.,0.,2.22044604925031E-16));
#1151=DIRECTION('',(1.,0.,1.00929365875014E-16));
#1152=DIRECTION('center_axis',(1.,0.,-9.25185853854297E-17));
#1153=DIRECTION('ref_axis',(-9.25185853854297E-17,0.,-1.));
#1154=DIRECTION('',(0.,1.,0.));
#1155=DIRECTION('',(-9.25185853854297E-17,0.,-1.));
#1156=DIRECTION('center_axis',(0.,1.,0.));
#1157=DIRECTION('ref_axis',(-1.,0.,-5.55111512312578E-16));
#1158=DIRECTION('',(0.,1.,0.));
#1159=DIRECTION('center_axis',(0.,-1.,0.));
#1160=DIRECTION('ref_axis',(-1.,0.,-5.55111512312578E-16));
#1161=DIRECTION('center_axis',(-2.22044604925031E-16,0.,-1.));
#1162=DIRECTION('ref_axis',(-1.,0.,2.22044604925031E-16));
#1163=DIRECTION('',(0.,1.,0.));
#1164=DIRECTION('',(-1.,0.,2.22044604925031E-16));
#1165=DIRECTION('center_axis',(0.,1.,0.));
#1166=DIRECTION('ref_axis',(1.66533453693774E-15,0.,1.));
#1167=DIRECTION('center_axis',(0.,-1.,0.));
#1168=DIRECTION('ref_axis',(1.66533453693774E-15,0.,1.));
#1169=DIRECTION('center_axis',(0.,1.,0.));
#1170=DIRECTION('ref_axis',(-5.55111512312578E-16,0.,-1.));
#1171=DIRECTION('center_axis',(0.,1.,0.));
#1172=DIRECTION('ref_axis',(-5.55111512312578E-16,0.,-1.));
#1173=DIRECTION('center_axis',(0.,1.,0.));
#1174=DIRECTION('ref_axis',(-5.55111512312578E-16,0.,-1.));
#1175=DIRECTION('',(0.,1.,0.));
#1176=DIRECTION('center_axis',(0.,0.,-1.));
#1177=DIRECTION('ref_axis',(-1.,0.,0.));
#1178=DIRECTION('',(-1.,0.,0.));
#1179=DIRECTION('',(-1.,0.,0.));
#1180=DIRECTION('',(0.,1.,0.));
#1181=DIRECTION('center_axis',(0.,1.,0.));
#1182=DIRECTION('ref_axis',(1.,0.,0.));
#1183=DIRECTION('center_axis',(0.,1.,0.));
#1184=DIRECTION('ref_axis',(1.,0.,0.));
#1185=DIRECTION('center_axis',(0.,1.,0.));
#1186=DIRECTION('ref_axis',(1.,0.,0.));
#1187=DIRECTION('',(0.,1.,0.));
#1188=DIRECTION('center_axis',(1.,0.,4.44089209850063E-17));
#1189=DIRECTION('ref_axis',(4.44089209850063E-17,0.,-1.));
#1190=DIRECTION('',(4.44089209850063E-17,0.,-1.));
#1191=DIRECTION('',(4.44089209850063E-17,0.,-1.));
#1192=DIRECTION('',(0.,1.,0.));
#1193=DIRECTION('center_axis',(0.,1.,0.));
#1194=DIRECTION('ref_axis',(5.55111512312578E-16,0.,1.));
#1195=DIRECTION('center_axis',(0.,1.,0.));
#1196=DIRECTION('ref_axis',(5.55111512312578E-16,0.,1.));
#1197=DIRECTION('center_axis',(0.,1.,0.));
#1198=DIRECTION('ref_axis',(5.55111512312578E-16,0.,1.));
#1199=DIRECTION('',(0.,1.,0.));
#1200=DIRECTION('center_axis',(-1.00929365875014E-16,0.,1.));
#1201=DIRECTION('ref_axis',(1.,0.,1.00929365875014E-16));
#1202=DIRECTION('',(1.,0.,1.00929365875014E-16));
#1203=DIRECTION('',(1.,0.,1.00929365875014E-16));
#1204=DIRECTION('',(0.,1.,0.));
#1205=DIRECTION('center_axis',(0.,1.,0.));
#1206=DIRECTION('ref_axis',(-1.,0.,-5.55111512312578E-16));
#1207=DIRECTION('center_axis',(0.,1.,0.));
#1208=DIRECTION('ref_axis',(-1.,0.,-5.55111512312578E-16));
#1209=DIRECTION('center_axis',(0.,1.,0.));
#1210=DIRECTION('ref_axis',(-1.,0.,-5.55111512312578E-16));
#1211=DIRECTION('center_axis',(0.,1.,0.));
#1212=DIRECTION('ref_axis',(-1.,0.,0.));
#1213=DIRECTION('center_axis',(0.,1.,0.));
#1214=DIRECTION('ref_axis',(-1.,0.,0.));
#1215=CARTESIAN_POINT('',(0.,0.,0.));
#1216=CARTESIAN_POINT('Origin',(11.3957679705259,0.,-42.8753338379647));
#1217=CARTESIAN_POINT('',(-8.60423202947415,0.,-42.8753338379647));
#1218=CARTESIAN_POINT('',(11.3957679705259,0.,-42.8753338379647));
#1219=CARTESIAN_POINT('',(-8.60423202947415,0.,-42.8753338379647));
#1220=CARTESIAN_POINT('',(-8.60423202947415,3.,-42.8753338379647));
#1221=CARTESIAN_POINT('',(-8.60423202947415,0.,-42.8753338379647));
#1222=CARTESIAN_POINT('',(11.3957679705259,3.,-42.8753338379647));
#1223=CARTESIAN_POINT('',(-8.60423202947415,3.,-42.8753338379647));
#1224=CARTESIAN_POINT('',(11.3957679705259,0.,-42.8753338379647));
#1225=CARTESIAN_POINT('Origin',(11.3957679705259,0.,-38.8753338379647));
#1226=CARTESIAN_POINT('',(15.3957679705258,0.,-38.8753338379647));
#1227=CARTESIAN_POINT('Origin',(11.3957679705259,0.,-38.8753338379647));
#1228=CARTESIAN_POINT('',(15.3957679705258,3.,-38.8753338379647));
#1229=CARTESIAN_POINT('Origin',(11.3957679705259,3.,-38.8753338379647));
#1230=CARTESIAN_POINT('',(15.3957679705258,0.,-38.8753338379647));
#1231=CARTESIAN_POINT('Origin',(15.3957679705259,0.,9.12466616203528));
#1232=CARTESIAN_POINT('',(15.3957679705259,0.,9.12466616203528));
#1233=CARTESIAN_POINT('',(15.3957679705258,0.,-38.8753338379647));
#1234=CARTESIAN_POINT('',(15.3957679705258,3.,9.12466616203528));
#1235=CARTESIAN_POINT('',(15.3957679705258,3.,-38.8753338379647));
#1236=CARTESIAN_POINT('',(15.3957679705259,0.,9.12466616203528));
#1237=CARTESIAN_POINT('Origin',(11.3957679705258,0.,9.12466616203527));
#1238=CARTESIAN_POINT('',(11.3957679705259,0.,13.1246661620353));
#1239=CARTESIAN_POINT('Origin',(11.3957679705258,0.,9.12466616203527));
#1240=CARTESIAN_POINT('',(11.3957679705259,3.,13.1246661620353));
#1241=CARTESIAN_POINT('Origin',(11.3957679705258,3.,9.12466616203527));
#1242=CARTESIAN_POINT('',(11.3957679705259,0.,13.1246661620353));
#1243=CARTESIAN_POINT('Origin',(-8.60423202947415,0.,13.1246661620353));
#1244=CARTESIAN_POINT('',(-8.60423202947415,0.,13.1246661620353));
#1245=CARTESIAN_POINT('',(11.3957679705259,0.,13.1246661620353));
#1246=CARTESIAN_POINT('',(-8.60423202947415,3.,13.1246661620353));
#1247=CARTESIAN_POINT('',(11.3957679705259,3.,13.1246661620353));
#1248=CARTESIAN_POINT('',(-8.60423202947415,0.,13.1246661620353));
#1249=CARTESIAN_POINT('Origin',(-8.60423202947415,0.,9.12466616203527));
#1250=CARTESIAN_POINT('',(-12.6042320294742,0.,9.12466616203528));
#1251=CARTESIAN_POINT('Origin',(-8.60423202947415,0.,9.12466616203527));
#1252=CARTESIAN_POINT('',(-12.6042320294742,3.,9.12466616203528));
#1253=CARTESIAN_POINT('Origin',(-8.60423202947415,3.,9.12466616203527));
#1254=CARTESIAN_POINT('',(-12.6042320294742,0.,9.12466616203528));
#1255=CARTESIAN_POINT('Origin',(-12.6042320294742,0.,-38.8753338379647));
#1256=CARTESIAN_POINT('',(-12.6042320294742,0.,-38.8753338379647));
#1257=CARTESIAN_POINT('',(-12.6042320294742,0.,9.12466616203528));
#1258=CARTESIAN_POINT('',(-12.6042320294742,3.,-38.8753338379647));
#1259=CARTESIAN_POINT('',(-12.6042320294742,3.,9.12466616203528));
#1260=CARTESIAN_POINT('',(-12.6042320294742,0.,-38.8753338379647));
#1261=CARTESIAN_POINT('Origin',(-8.60423202947416,0.,-38.8753338379647));
#1262=CARTESIAN_POINT('Origin',(-8.60423202947416,0.,-38.8753338379647));
#1263=CARTESIAN_POINT('Origin',(-8.60423202947416,3.,-38.8753338379647));
#1264=CARTESIAN_POINT('Origin',(1.39576797052585,3.,-14.8753338379647));
#1265=CARTESIAN_POINT('Origin',(1.39576797052585,0.,-14.8753338379647));
#1266=CARTESIAN_POINT('Origin',(-16.1042320294742,15.,-37.3753338379647));
#1267=CARTESIAN_POINT('',(-16.1042320294741,15.,-39.8753338379647));
#1268=CARTESIAN_POINT('',(-16.1042320294741,15.,-34.8753338379647));
#1269=CARTESIAN_POINT('Origin',(-16.1042320294742,15.,-37.3753338379647));
#1270=CARTESIAN_POINT('',(-16.1042320294741,10.,-39.8753338379647));
#1271=CARTESIAN_POINT('',(-16.1042320294742,15.,-39.8753338379647));
#1272=CARTESIAN_POINT('',(-16.1042320294741,10.,-34.8753338379647));
#1273=CARTESIAN_POINT('Origin',(-16.1042320294742,10.,-37.3753338379647));
#1274=CARTESIAN_POINT('',(-16.1042320294741,15.,-34.8753338379647));
#1275=CARTESIAN_POINT('Origin',(-13.6042320294741,10.,-34.8753338379647));
#1276=CARTESIAN_POINT('',(-13.6042320294741,10.,-34.8753338379647));
#1277=CARTESIAN_POINT('',(-13.6042320294741,10.,-34.8753338379647));
#1278=CARTESIAN_POINT('',(-13.6042320294741,15.,-34.8753338379647));
#1279=CARTESIAN_POINT('',(-13.6042320294741,6.5,-34.8753338379647));
#1280=CARTESIAN_POINT('',(-13.6042320294741,15.,-34.8753338379647));
#1281=CARTESIAN_POINT('Origin',(-13.6042320294741,10.,-39.8753338379647));
#1282=CARTESIAN_POINT('',(-13.6042320294741,10.,-39.8753338379647));
#1283=CARTESIAN_POINT('',(-13.6042320294741,10.,-39.8753338379647));
#1284=CARTESIAN_POINT('',(-13.6042320294741,10.,-39.8753338379647));
#1285=CARTESIAN_POINT('',(-14.7500002384186,10.,-37.5000005587935));
#1286=CARTESIAN_POINT('Origin',(-16.0000002384186,10.,-37.5000005587935));
#1287=CARTESIAN_POINT('Origin',(-16.0000002384186,15.,-37.5000005587935));
#1288=CARTESIAN_POINT('',(-14.7500002384186,15.,-37.5000005587935));
#1289=CARTESIAN_POINT('Origin',(-16.0000002384186,15.,-37.5000005587935));
#1290=CARTESIAN_POINT('',(-14.7500002384186,15.,-37.5000005587935));
#1291=CARTESIAN_POINT('Origin',(-13.6042320294741,15.,-39.8753338379647));
#1292=CARTESIAN_POINT('',(-13.6042320294742,15.,-39.8753338379647));
#1293=CARTESIAN_POINT('',(-13.6042320294741,15.,-39.8753338379647));
#1294=CARTESIAN_POINT('',(-13.6042320294742,3.,-39.8753338379647));
#1295=CARTESIAN_POINT('Origin',(-13.6042320294741,3.,-39.8753338379647));
#1296=CARTESIAN_POINT('',(-13.6042320294742,3.,-39.8753338379647));
#1297=CARTESIAN_POINT('',(-13.6042320294742,3.,-39.8753338379647));
#1298=CARTESIAN_POINT('',(-13.6042320294741,3.,10.1246661620353));
#1299=CARTESIAN_POINT('',(-13.6042320294741,3.,-39.8753338379647));
#1300=CARTESIAN_POINT('',(-13.6042320294741,15.,10.1246661620353));
#1301=CARTESIAN_POINT('',(-13.6042320294741,3.,10.1246661620353));
#1302=CARTESIAN_POINT('',(-13.6042320294741,15.,-39.8753338379647));
#1303=CARTESIAN_POINT('Origin',(3.89576797052585,15.,-14.3753338379647));
#1304=CARTESIAN_POINT('',(3.89576797052585,15.,-14.3753338379647));
#1305=CARTESIAN_POINT('',(3.89576797052585,15.,-9.37533383796472));
#1306=CARTESIAN_POINT('',(3.89576797052585,15.,-14.6253338379647));
#1307=CARTESIAN_POINT('',(3.89576797052585,14.,-14.3753338379647));
#1308=CARTESIAN_POINT('',(3.89576797052585,15.,-14.3753338379647));
#1309=CARTESIAN_POINT('',(3.89576797052585,14.,-9.37533383796472));
#1310=CARTESIAN_POINT('',(3.89576797052585,14.,-14.6253338379647));
#1311=CARTESIAN_POINT('',(3.89576797052585,15.,-9.37533383796472));
#1312=CARTESIAN_POINT('Origin',(-1.10423202947415,15.,-14.3753338379647));
#1313=CARTESIAN_POINT('',(-1.10423202947415,15.,-14.3753338379647));
#1314=CARTESIAN_POINT('',(0.145767970525852,15.,-14.3753338379647));
#1315=CARTESIAN_POINT('',(-1.10423202947415,14.,-14.3753338379647));
#1316=CARTESIAN_POINT('',(-1.10423202947415,15.,-14.3753338379647));
#1317=CARTESIAN_POINT('',(0.145767970525848,14.,-14.3753338379647));
#1318=CARTESIAN_POINT('Origin',(-1.10423202947415,15.,-9.37533383796472));
#1319=CARTESIAN_POINT('',(-1.10423202947415,15.,-9.37533383796472));
#1320=CARTESIAN_POINT('',(-1.10423202947415,15.,-12.1253338379647));
#1321=CARTESIAN_POINT('',(-1.10423202947415,14.,-9.37533383796472));
#1322=CARTESIAN_POINT('',(-1.10423202947415,15.,-9.37533383796472));
#1323=CARTESIAN_POINT('',(-1.10423202947415,14.,-12.1253338379647));
#1324=CARTESIAN_POINT('Origin',(3.89576797052585,15.,-9.37533383796472));
#1325=CARTESIAN_POINT('',(2.64576797052585,15.,-9.37533383796472));
#1326=CARTESIAN_POINT('',(2.64576797052585,14.,-9.37533383796472));
#1327=CARTESIAN_POINT('Origin',(13.8957679705258,15.,-16.5753338379647));
#1328=CARTESIAN_POINT('',(13.8957679705258,15.,-16.5753338379647));
#1329=CARTESIAN_POINT('',(-11.1042320294742,15.,-16.5753338379647));
#1330=CARTESIAN_POINT('',(7.64576797052585,15.,-16.5753338379647));
#1331=CARTESIAN_POINT('',(13.8957679705258,14.,-16.5753338379647));
#1332=CARTESIAN_POINT('',(13.8957679705258,15.,-16.5753338379647));
#1333=CARTESIAN_POINT('',(-11.1042320294742,14.,-16.5753338379647));
#1334=CARTESIAN_POINT('',(7.64576797052585,14.,-16.5753338379647));
#1335=CARTESIAN_POINT('',(-11.1042320294742,15.,-16.5753338379647));
#1336=CARTESIAN_POINT('Origin',(13.8957679705258,15.,-34.0753338379647));
#1337=CARTESIAN_POINT('',(13.8957679705258,15.,-34.0753338379647));
#1338=CARTESIAN_POINT('',(13.8957679705258,15.,-24.4753338379647));
#1339=CARTESIAN_POINT('',(13.8957679705258,14.,-34.0753338379647));
#1340=CARTESIAN_POINT('',(13.8957679705258,15.,-34.0753338379647));
#1341=CARTESIAN_POINT('',(13.8957679705258,14.,-24.4753338379647));
#1342=CARTESIAN_POINT('Origin',(-11.1042320294742,15.,-34.0753338379647));
#1343=CARTESIAN_POINT('',(-11.1042320294742,15.,-34.0753338379647));
#1344=CARTESIAN_POINT('',(-4.85423202947415,15.,-34.0753338379647));
#1345=CARTESIAN_POINT('',(-11.1042320294742,14.,-34.0753338379647));
#1346=CARTESIAN_POINT('',(-11.1042320294742,15.,-34.0753338379647));
#1347=CARTESIAN_POINT('',(-4.85423202947415,14.,-34.0753338379647));
#1348=CARTESIAN_POINT('Origin',(-11.1042320294742,15.,-16.5753338379647));
#1349=CARTESIAN_POINT('',(-11.1042320294742,15.,-15.7253338379647));
#1350=CARTESIAN_POINT('',(-11.1042320294742,14.,-15.7253338379647));
#1351=CARTESIAN_POINT('Origin',(1.39576797052585,14.,-14.8753338379647));
#1352=CARTESIAN_POINT('',(-8.60423202947415,14.,-42.8753338379647));
#1353=CARTESIAN_POINT('',(-12.6042320294742,14.,-38.8753338379647));
#1354=CARTESIAN_POINT('Origin',(-8.60423202947416,14.,-38.8753338379647));
#1355=CARTESIAN_POINT('',(11.3957679705259,14.,-42.8753338379647));
#1356=CARTESIAN_POINT('',(-3.60423202947415,14.,-42.8753338379647));
#1357=CARTESIAN_POINT('',(15.3957679705258,14.,-38.8753338379647));
#1358=CARTESIAN_POINT('Origin',(11.3957679705259,14.,-38.8753338379647));
#1359=CARTESIAN_POINT('',(15.3957679705258,14.,9.12466616203528));
#1360=CARTESIAN_POINT('',(15.3957679705258,14.,-26.8753338379647));
#1361=CARTESIAN_POINT('',(11.3957679705259,14.,13.1246661620353));
#1362=CARTESIAN_POINT('Origin',(11.3957679705258,14.,9.12466616203527));
#1363=CARTESIAN_POINT('',(-8.60423202947415,14.,13.1246661620353));
#1364=CARTESIAN_POINT('',(6.39576797052585,14.,13.1246661620353));
#1365=CARTESIAN_POINT('',(-12.6042320294742,14.,9.12466616203528));
#1366=CARTESIAN_POINT('Origin',(-8.60423202947415,14.,9.12466616203527));
#1367=CARTESIAN_POINT('',(-12.6042320294742,14.,-2.87533383796472));
#1368=CARTESIAN_POINT('Origin',(15.3957679705258,3.,-38.8753338379647));
#1369=CARTESIAN_POINT('',(15.3957679705258,3.,-38.8753338379647));
#1370=CARTESIAN_POINT('',(15.3957679705258,3.,-38.8753338379647));
#1371=CARTESIAN_POINT('',(15.3957679705259,3.,9.12466616203528));
#1372=CARTESIAN_POINT('',(15.3957679705259,3.,9.12466616203528));
#1373=CARTESIAN_POINT('',(15.3957679705259,3.,9.12466616203528));
#1374=CARTESIAN_POINT('Origin',(11.3957679705259,3.,-38.8753338379647));
#1375=CARTESIAN_POINT('',(11.3957679705259,3.,-42.8753338379647));
#1376=CARTESIAN_POINT('',(11.3957679705259,3.,-42.8753338379647));
#1377=CARTESIAN_POINT('Origin',(11.3957679705259,3.,-38.8753338379647));
#1378=CARTESIAN_POINT('Origin',(-8.60423202947415,3.,-42.8753338379647));
#1379=CARTESIAN_POINT('',(-8.60423202947415,3.,-42.8753338379647));
#1380=CARTESIAN_POINT('',(-8.60423202947415,3.,-42.8753338379647));
#1381=CARTESIAN_POINT('',(11.3957679705259,3.,-42.8753338379647));
#1382=CARTESIAN_POINT('Origin',(-8.60423202947416,3.,-38.8753338379647));
#1383=CARTESIAN_POINT('',(-12.6042320294742,3.,-38.8753338379647));
#1384=CARTESIAN_POINT('',(-12.6042320294742,3.,-38.8753338379647));
#1385=CARTESIAN_POINT('Origin',(-8.60423202947416,3.,-38.8753338379647));
#1386=CARTESIAN_POINT('Origin',(-3.10423202947415,5.5,14.1246661620353));
#1387=CARTESIAN_POINT('',(-3.10423202947415,9.,13.1246661620353));
#1388=CARTESIAN_POINT('',(-3.10423202947415,5.5,13.1246661620353));
#1389=CARTESIAN_POINT('',(-3.10423202947415,4.25,13.1246661620353));
#1390=CARTESIAN_POINT('',(-3.10423202947415,9.,14.1246661620353));
#1391=CARTESIAN_POINT('',(-3.10423202947415,9.,14.1246661620353));
#1392=CARTESIAN_POINT('',(-3.10423202947415,5.5,14.1246661620353));
#1393=CARTESIAN_POINT('',(-3.10423202947415,4.25,14.1246661620353));
#1394=CARTESIAN_POINT('',(-3.10423202947415,5.5,14.1246661620353));
#1395=CARTESIAN_POINT('Origin',(5.89576797052585,5.5,14.1246661620353));
#1396=CARTESIAN_POINT('',(5.89576797052585,5.5,13.1246661620353));
#1397=CARTESIAN_POINT('',(8.64576797052585,5.5,13.1246661620353));
#1398=CARTESIAN_POINT('',(5.89576797052585,5.5,14.1246661620353));
#1399=CARTESIAN_POINT('',(-1.85423202947415,5.5,14.1246661620353));
#1400=CARTESIAN_POINT('',(5.89576797052585,5.5,14.1246661620353));
#1401=CARTESIAN_POINT('Origin',(5.89576797052585,9.,14.1246661620353));
#1402=CARTESIAN_POINT('',(5.89576797052585,9.,13.1246661620353));
#1403=CARTESIAN_POINT('',(5.89576797052585,6.,13.1246661620353));
#1404=CARTESIAN_POINT('',(5.89576797052585,9.,14.1246661620353));
#1405=CARTESIAN_POINT('',(5.89576797052585,6.,14.1246661620353));
#1406=CARTESIAN_POINT('',(5.89576797052585,9.,14.1246661620353));
#1407=CARTESIAN_POINT('Origin',(-3.10423202947415,9.,14.1246661620353));
#1408=CARTESIAN_POINT('',(4.14576797052585,9.,13.1246661620353));
#1409=CARTESIAN_POINT('',(-6.35423202947415,9.,14.1246661620353));
#1410=CARTESIAN_POINT('Origin',(-12.6042320294742,3.,9.12466616203527));
#1411=CARTESIAN_POINT('',(-12.6042320294742,3.,9.12466616203527));
#1412=CARTESIAN_POINT('',(-12.6042320294742,3.,9.12466616203527));
#1413=CARTESIAN_POINT('',(-12.6042320294742,3.,-38.8753338379647));
#1414=CARTESIAN_POINT('Origin',(-8.60423202947415,3.,9.12466616203527));
#1415=CARTESIAN_POINT('',(-8.60423202947415,3.,13.1246661620353));
#1416=CARTESIAN_POINT('',(-8.60423202947415,3.,13.1246661620353));
#1417=CARTESIAN_POINT('Origin',(-8.60423202947415,3.,9.12466616203527));
#1418=CARTESIAN_POINT('Origin',(11.3957679705259,3.,13.1246661620353));
#1419=CARTESIAN_POINT('',(11.3957679705259,3.,13.1246661620353));
#1420=CARTESIAN_POINT('',(11.3957679705259,3.,13.1246661620353));
#1421=CARTESIAN_POINT('',(-8.60423202947415,3.,13.1246661620353));
#1422=CARTESIAN_POINT('Origin',(11.3957679705258,3.,9.12466616203527));
#1423=CARTESIAN_POINT('Origin',(11.3957679705258,3.,9.12466616203527));
#1424=CARTESIAN_POINT('Origin',(-9.60423202947415,3.,-39.8753338379647));
#1425=CARTESIAN_POINT('',(-9.60423202947415,3.,-43.8753338379647));
#1426=CARTESIAN_POINT('Origin',(-9.60423202947415,3.,-39.8753338379647));
#1427=CARTESIAN_POINT('',(-9.60423202947415,15.,-43.8753338379647));
#1428=CARTESIAN_POINT('Origin',(-9.60423202947415,15.,-39.8753338379647));
#1429=CARTESIAN_POINT('',(-9.60423202947415,3.,-43.8753338379647));
#1430=CARTESIAN_POINT('Origin',(12.3957679705259,3.,-43.8753338379647));
#1431=CARTESIAN_POINT('',(12.3957679705259,3.,-43.8753338379647));
#1432=CARTESIAN_POINT('',(12.3957679705259,3.,-43.8753338379647));
#1433=CARTESIAN_POINT('',(12.3957679705259,15.,-43.8753338379647));
#1434=CARTESIAN_POINT('',(12.3957679705259,15.,-43.8753338379647));
#1435=CARTESIAN_POINT('',(12.3957679705259,3.,-43.8753338379647));
#1436=CARTESIAN_POINT('Origin',(12.3957679705258,3.,-39.8753338379647));
#1437=CARTESIAN_POINT('',(16.3957679705259,3.,-39.8753338379647));
#1438=CARTESIAN_POINT('Origin',(12.3957679705258,3.,-39.8753338379647));
#1439=CARTESIAN_POINT('',(16.3957679705259,15.,-39.8753338379647));
#1440=CARTESIAN_POINT('Origin',(12.3957679705258,15.,-39.8753338379647));
#1441=CARTESIAN_POINT('',(16.3957679705259,3.,-39.8753338379647));
#1442=CARTESIAN_POINT('Origin',(16.3957679705259,3.,10.1246661620353));
#1443=CARTESIAN_POINT('',(16.3957679705259,3.,10.1246661620353));
#1444=CARTESIAN_POINT('',(16.3957679705259,3.,10.1246661620353));
#1445=CARTESIAN_POINT('',(16.3957679705259,15.,10.1246661620353));
#1446=CARTESIAN_POINT('',(16.3957679705259,15.,10.1246661620353));
#1447=CARTESIAN_POINT('',(16.3957679705259,3.,10.1246661620353));
#1448=CARTESIAN_POINT('Origin',(12.3957679705259,3.,10.1246661620353));
#1449=CARTESIAN_POINT('',(12.3957679705259,3.,14.1246661620353));
#1450=CARTESIAN_POINT('Origin',(12.3957679705259,3.,10.1246661620353));
#1451=CARTESIAN_POINT('',(12.3957679705259,15.,14.1246661620353));
#1452=CARTESIAN_POINT('Origin',(12.3957679705259,15.,10.1246661620353));
#1453=CARTESIAN_POINT('',(12.3957679705259,3.,14.1246661620353));
#1454=CARTESIAN_POINT('Origin',(-9.60423202947415,3.,14.1246661620353));
#1455=CARTESIAN_POINT('',(-9.60423202947415,3.,14.1246661620353));
#1456=CARTESIAN_POINT('',(-9.60423202947415,3.,14.1246661620353));
#1457=CARTESIAN_POINT('',(-9.60423202947415,15.,14.1246661620353));
#1458=CARTESIAN_POINT('',(-9.60423202947415,15.,14.1246661620353));
#1459=CARTESIAN_POINT('',(-9.60423202947415,3.,14.1246661620353));
#1460=CARTESIAN_POINT('Origin',(-9.60423202947415,3.,10.1246661620353));
#1461=CARTESIAN_POINT('Origin',(-9.60423202947415,3.,10.1246661620353));
#1462=CARTESIAN_POINT('Origin',(-9.60423202947415,15.,10.1246661620353));
#1463=CARTESIAN_POINT('Origin',(1.39576797052585,15.,-14.8753338379647));
#1464=CARTESIAN_POINT('Origin',(1.39576797052585,3.,-14.8753338379647));
#1465=UNCERTAINTY_MEASURE_WITH_UNIT(LENGTH_MEASURE(0.01),#1469,
'DISTANCE_ACCURACY_VALUE',
'Maximum model space distance between geometric entities at asserted c
onnectivities');
#1466=UNCERTAINTY_MEASURE_WITH_UNIT(LENGTH_MEASURE(0.01),#1469,
'DISTANCE_ACCURACY_VALUE',
'Maximum model space distance between geometric entities at asserted c
onnectivities');
#1467=(
GEOMETRIC_REPRESENTATION_CONTEXT(3)
GLOBAL_UNCERTAINTY_ASSIGNED_CONTEXT((#1465))
GLOBAL_UNIT_ASSIGNED_CONTEXT((#1469,#1471,#1472))
REPRESENTATION_CONTEXT('','3D')
);
#1468=(
GEOMETRIC_REPRESENTATION_CONTEXT(3)
GLOBAL_UNCERTAINTY_ASSIGNED_CONTEXT((#1466))
GLOBAL_UNIT_ASSIGNED_CONTEXT((#1469,#1471,#1472))
REPRESENTATION_CONTEXT('','3D')
);
#1469=(
LENGTH_UNIT()
NAMED_UNIT(*)
SI_UNIT(.MILLI.,.METRE.)
);
#1470=(
LENGTH_UNIT()
NAMED_UNIT(*)
SI_UNIT($,.METRE.)
);
#1471=(
NAMED_UNIT(*)
PLANE_ANGLE_UNIT()
SI_UNIT($,.RADIAN.)
);
#1472=(
NAMED_UNIT(*)
SI_UNIT($,.STERADIAN.)
SOLID_ANGLE_UNIT()
);
#1473=SHAPE_DEFINITION_REPRESENTATION(#1474,#1475);
#1474=PRODUCT_DEFINITION_SHAPE('',$,#1477);
#1475=SHAPE_REPRESENTATION('',(#896),#1467);
#1476=PRODUCT_DEFINITION_CONTEXT('part definition',#1481,'design');
#1477=PRODUCT_DEFINITION('Deepthought','Deepthought v1',#1478,#1476);
#1478=PRODUCT_DEFINITION_FORMATION('',$,#1483);
#1479=PRODUCT_RELATED_PRODUCT_CATEGORY('Deepthought v1',
'Deepthought v1',(#1483));
#1480=APPLICATION_PROTOCOL_DEFINITION('international standard',
'automotive_design',2009,#1481);
#1481=APPLICATION_CONTEXT(
'Core Data for Automotive Mechanical Design Process');
#1482=PRODUCT_CONTEXT('part definition',#1481,'mechanical');
#1483=PRODUCT('Deepthought','Deepthought v1',$,(#1482));
#1484=PRESENTATION_STYLE_ASSIGNMENT((#1485));
#1485=SURFACE_STYLE_USAGE(.BOTH.,#1486);
#1486=SURFACE_SIDE_STYLE('',(#1487));
#1487=SURFACE_STYLE_FILL_AREA(#1488);
#1488=FILL_AREA_STYLE('Steel - Satin',(#1489));
#1489=FILL_AREA_STYLE_COLOUR('Steel - Satin',#1490);
#1490=COLOUR_RGB('Steel - Satin',0.627450980392157,0.627450980392157,0.627450980392157);
ENDSEC;
END-ISO-10303-21;
